<svg width="25" height="24" viewBox="0 0 25 24" fill="none" xmlns="http://www.w3.org/2000/svg">
<rect width="24" height="24" transform="translate(0.5)" fill="white"/>
<path fill-rule="evenodd" clip-rule="evenodd" d="M10.1 16.8V19.2H13.3V16.8H10.1ZM9.61999 16C9.44326 16 9.29999 16.1433 9.29999 16.32V19.68C9.29999 19.8567 9.44326 20 9.61999 20H13.78C13.9567 20 14.1 19.8567 14.1 19.68V16.32C14.1 16.1433 13.9567 16 13.78 16H9.61999Z" fill="#686868"/>
<path fill-rule="evenodd" clip-rule="evenodd" d="M14.1 16.8V19.2H17.3V16.8H14.1ZM13.62 16C13.4433 16 13.3 16.1433 13.3 16.32V19.68C13.3 19.8567 13.4433 20 13.62 20H17.78C17.9567 20 18.1 19.8567 18.1 19.68V16.32C18.1 16.1433 17.9567 16 17.78 16H13.62Z" fill="#686868"/>
<path fill-rule="evenodd" clip-rule="evenodd" d="M18.1 16.8V19.2H21.3V16.8H18.1ZM17.62 16C17.4433 16 17.3 16.1433 17.3 16.32V19.68C17.3 19.8567 17.4433 20 17.62 20H21.78C21.9567 20 22.1 19.8567 22.1 19.68V16.32C22.1 16.1433 21.9567 16 21.78 16H17.62Z" fill="#686868"/>
<path fill-rule="evenodd" clip-rule="evenodd" d="M15.7 13.6008V16.0008H18.9V13.6008H15.7ZM15.22 12.8008C15.0433 12.8008 14.9 12.9441 14.9 13.1208V16.4808C14.9 16.6575 15.0433 16.8008 15.22 16.8008H19.38C19.5568 16.8008 19.7 16.6575 19.7 16.4808V13.1208C19.7 12.9441 19.5568 12.8008 19.38 12.8008H15.22Z" fill="#686868"/>
<path fill-rule="evenodd" clip-rule="evenodd" d="M11.7 13.6008V16.0008H14.9V13.6008H11.7ZM11.22 12.8008C11.0433 12.8008 10.9 12.9441 10.9 13.1208V16.4808C10.9 16.6575 11.0433 16.8008 11.22 16.8008H15.38C15.5568 16.8008 15.7 16.6575 15.7 16.4808V13.1208C15.7 12.9441 15.5568 12.8008 15.38 12.8008H11.22Z" fill="#686868"/>
<path fill-rule="evenodd" clip-rule="evenodd" d="M15.5211 3.24145C15.6495 3.17725 15.8024 3.18678 15.9219 3.2664L16.9 3.91848L17.8781 3.2664C18.0009 3.18457 18.1587 3.17694 18.2887 3.24655C18.4188 3.31616 18.5 3.4517 18.5 3.59922V13.1992C18.5 13.4201 18.3209 13.5992 18.1 13.5992C17.8791 13.5992 17.7 13.4201 17.7 13.1992V4.34663L17.1219 4.73204C16.9875 4.82161 16.8125 4.82161 16.6781 4.73204L15.6713 4.0608L14.2789 4.75699C14.1505 4.82118 13.9976 4.81166 13.8781 4.73204L12.9 4.07996L11.9219 4.73204C11.7875 4.82161 11.6125 4.82161 11.4781 4.73204L10.5 4.07996L9.52188 4.73204C9.38752 4.82161 9.21248 4.82161 9.07812 4.73204L8.5 4.34663V5.99922C8.5 6.22013 8.32092 6.39922 8.1 6.39922C7.87909 6.39922 7.7 6.22013 7.7 5.99922V3.59922C7.7 3.4517 7.7812 3.31616 7.91126 3.24655C8.04132 3.17694 8.19914 3.18457 8.32188 3.2664L9.3 3.91848L10.2781 3.2664C10.4125 3.17683 10.5875 3.17683 10.7219 3.2664L11.7 3.91848L12.6781 3.2664C12.8125 3.17683 12.9875 3.17683 13.1219 3.2664L14.1287 3.93764L15.5211 3.24145ZM4.54726 7.41048C4.61687 7.28041 4.75241 7.19922 4.89993 7.19922H15.3C15.4286 7.19922 15.5493 7.26103 15.6245 7.36533C15.6997 7.46964 15.7201 7.60373 15.6795 7.72571L15.3193 8.80638C15.3492 8.90454 15.3821 9.00614 15.4163 9.11198C15.6904 9.95881 16.0523 11.0771 15.6922 12.8777C15.6489 13.0943 15.4382 13.2348 15.2216 13.1915C15.0049 13.1481 14.8644 12.9374 14.9078 12.7208C15.225 11.1344 14.9259 10.2035 14.6583 9.37075C14.6081 9.21464 14.5591 9.06199 14.5154 8.90911C14.4932 8.8316 14.495 8.7492 14.5205 8.67273L14.745 7.99922H5.64734L6.03275 8.57734C6.13101 8.72473 6.12063 8.91921 6.00722 9.05529C5.67103 9.45873 5.42965 10.087 5.2807 10.8886C5.13314 11.6826 5.08347 12.6062 5.09987 13.5624C5.13267 15.4747 5.42861 17.4688 5.69135 18.7168C5.70597 18.7863 5.70185 18.8584 5.6794 18.9257L5.4549 19.5992H8.49993C8.72085 19.5992 8.89993 19.7783 8.89993 19.9992C8.89993 20.2201 8.72085 20.3992 8.49993 20.3992H4.89993C4.77135 20.3992 4.65062 20.3374 4.57543 20.2331C4.50025 20.1288 4.4798 19.9947 4.52046 19.8727L4.88636 18.775C4.62157 17.485 4.33293 15.4967 4.29999 13.5761C4.28306 12.5889 4.33339 11.6075 4.49416 10.7424C4.63151 10.0033 4.85492 9.3182 5.21086 8.78672L4.56711 7.8211C4.48528 7.69836 4.47765 7.54054 4.54726 7.41048ZM6.9 9.19922C6.9 8.9783 7.07909 8.79922 7.3 8.79922H8.1C8.32092 8.79922 8.5 8.9783 8.5 9.19922C8.5 9.42013 8.32092 9.59922 8.1 9.59922H7.3C7.07909 9.59922 6.9 9.42013 6.9 9.19922ZM9.3 9.19922C9.3 8.9783 9.47909 8.79922 9.7 8.79922H10.5C10.7209 8.79922 10.9 8.9783 10.9 9.19922C10.9 9.42013 10.7209 9.59922 10.5 9.59922H9.7C9.47909 9.59922 9.3 9.42013 9.3 9.19922ZM12.1 9.19922C12.1 8.9783 12.2791 8.79922 12.5 8.79922H13.3C13.5209 8.79922 13.7 8.9783 13.7 9.19922C13.7 9.42013 13.5209 9.59922 13.3 9.59922H12.5C12.2791 9.59922 12.1 9.42013 12.1 9.19922ZM6.9 11.1992C6.9 10.9783 7.07909 10.7992 7.3 10.7992H12.5C12.7209 10.7992 12.9 10.9783 12.9 11.1992V13.1992C12.9 13.4201 12.7209 13.5992 12.5 13.5992C12.2791 13.5992 12.1 13.4201 12.1 13.1992V11.5992H7.7V15.9992H8.49993C8.72085 15.9992 8.89993 16.1783 8.89993 16.3992C8.89993 16.6201 8.72085 16.7992 8.49993 16.7992H7.3C7.07909 16.7992 6.9 16.6201 6.9 16.3992V11.1992ZM6.9 17.9992C6.9 17.7783 7.07909 17.5992 7.3 17.5992H8.1C8.32092 17.5992 8.5 17.7783 8.5 17.9992C8.5 18.2201 8.32092 18.3992 8.1 18.3992H7.3C7.07909 18.3992 6.9 18.2201 6.9 17.9992Z" fill="#686868"/>
</svg>
