<svg width="25" height="24" viewBox="0 0 25 24" fill="none" xmlns="http://www.w3.org/2000/svg">
<path d="M20.079 10.485V7.44293C20.079 6.89064 19.6313 6.44293 19.079 6.44293H12.409C12.1438 6.44293 11.8894 6.33757 11.7019 6.15003L10.2666 4.71477C10.0791 4.52723 9.82471 4.42188 9.55949 4.42188H3.90002C3.34774 4.42188 2.90002 4.86959 2.90002 5.42187V18.5798C2.90002 19.1321 3.34774 19.5798 3.90002 19.5798H5.07619C5.54862 19.5798 5.9316 19.1968 5.9316 18.7244V18.7244C5.9316 18.6218 5.95005 18.52 5.98607 18.424L8.71985 11.1339C8.86622 10.7436 9.23934 10.485 9.65618 10.485H20.7126C21.3952 10.485 21.8771 11.1537 21.6613 11.8013L19.2964 18.896C19.1603 19.3043 18.7781 19.5798 18.3477 19.5798H4.92108" stroke="white" stroke-width="2" stroke-linecap="round" stroke-linejoin="round"/>
</svg>
