<svg width="25" height="24" viewBox="0 0 25 24" fill="none" xmlns="http://www.w3.org/2000/svg">
<path d="M16.9297 1.48145V1.48242C17.1504 1.48036 17.3697 1.52158 17.5742 1.60449C17.779 1.68758 17.966 1.81032 18.123 1.96582L18.2344 2.08789C18.3397 2.21515 18.4254 2.35772 18.4893 2.51074L18.5459 2.66602C18.5942 2.82419 18.6191 2.98928 18.6191 3.15527C18.6191 3.32104 18.5941 3.48559 18.5459 3.64355L18.4893 3.7998C18.4254 3.95278 18.3397 4.09545 18.2344 4.22266L18.123 4.34473C18.0051 4.46146 17.87 4.55882 17.7236 4.63574L17.5742 4.70605C17.3697 4.78897 17.1504 4.82921 16.9297 4.82715V4.82812H8.07812V4.82715C7.91263 4.82872 7.74804 4.80728 7.58984 4.76074L7.43359 4.70605C7.22866 4.62299 7.04193 4.50028 6.88477 4.34473C6.76676 4.22791 6.66729 4.09391 6.58887 3.94824L6.51758 3.7998C6.43245 3.59575 6.38871 3.37637 6.38867 3.15527L6.39648 2.98926C6.41283 2.82497 6.45379 2.66368 6.51758 2.51074L6.58887 2.36133C6.66723 2.21585 6.76691 2.08251 6.88477 1.96582L7.00781 1.85547C7.13623 1.75128 7.27978 1.66685 7.43359 1.60449C7.63825 1.52154 7.85731 1.48032 8.07812 1.48242V1.48145H16.9297ZM7.9668 2.0459C7.89365 2.05231 7.82144 2.06627 7.75098 2.08691L7.64648 2.12305C7.54412 2.16446 7.44877 2.22079 7.36328 2.29004L7.28125 2.36328C7.20261 2.44103 7.13625 2.52996 7.08398 2.62695L7.03613 2.72559C6.97938 2.8615 6.9502 3.00799 6.9502 3.15527C6.95023 3.30241 6.97946 3.4482 7.03613 3.58398L7.08398 3.68359C7.13621 3.78042 7.20273 3.86963 7.28125 3.94727L7.36328 4.02051C7.44876 4.0897 7.54415 4.14613 7.64648 4.1875L7.75098 4.22363C7.85636 4.2545 7.96596 4.26976 8.07617 4.26855H16.9307L17.041 4.26465C17.1507 4.25502 17.2589 4.2289 17.3613 4.1875C17.4977 4.13233 17.6219 4.05066 17.7266 3.94727L17.8008 3.86523C17.8709 3.78056 17.9282 3.68582 17.9707 3.58398L18.0088 3.48047C18.0409 3.3753 18.0566 3.26564 18.0566 3.15527C18.0566 3.04499 18.0408 2.93518 18.0088 2.83008L17.9707 2.72559C17.9281 2.62378 17.8709 2.52897 17.8008 2.44434L17.7266 2.36328C17.622 2.25986 17.4977 2.17824 17.3613 2.12305C17.2248 2.06785 17.0779 2.04031 16.9307 2.04199H8.07617L7.9668 2.0459Z" fill="#686868" stroke="#686868" stroke-width="0.24"/>
<path d="M11.4609 9.43262C12.6632 9.23944 13.8974 9.38245 15.0254 9.84961L15.249 9.94727C16.3563 10.4547 17.303 11.26 17.9814 12.2754L18.1123 12.4805C18.7512 13.5176 19.0908 14.7133 19.0908 15.9346L19.082 16.2607C18.9992 17.8876 18.3165 19.4306 17.1592 20.5879C16.0019 21.7452 14.4589 22.4279 12.832 22.5107L12.5059 22.5195C11.2846 22.5195 10.0888 22.1799 9.05176 21.541L8.84668 21.4102C7.83133 20.7317 7.02595 19.785 6.51855 18.6777L6.4209 18.4541C5.92258 17.2509 5.7928 15.9267 6.04688 14.6494L6.09863 14.4111C6.38029 13.2263 6.98522 12.1408 7.84863 11.2773L8.02441 11.1084C8.91687 10.2797 10.0231 9.71382 11.2207 9.47559L11.4609 9.43262ZM12.5049 9.90918C11.3879 9.90929 10.2943 10.2195 9.3457 10.8037L9.1582 10.9248C8.22935 11.5454 7.49258 12.4109 7.02832 13.4238L6.93848 13.6289C6.48256 14.7298 6.36322 15.9417 6.5957 17.1104C6.82826 18.279 7.40252 19.3527 8.24512 20.1953L8.40527 20.3496C9.2219 21.108 10.2342 21.6258 11.3301 21.8438L11.5498 21.8838C12.65 22.0605 13.7794 21.9285 14.8115 21.501C15.9124 21.0449 16.8536 20.273 17.5156 19.2822L17.6357 19.0938C18.22 18.145 18.5312 17.0517 18.5312 15.9346L18.5234 15.6357C18.4476 14.1471 17.8226 12.7347 16.7637 11.6758C15.6341 10.5464 14.1022 9.91138 12.5049 9.90918Z" fill="#686868" stroke="#686868" stroke-width="0.24"/>
<path d="M11.9875 11.7207C12.7132 11.6315 13.4514 11.7307 14.1301 12.0117L14.4163 12.1426C15.0694 12.4716 15.6281 12.9652 16.0364 13.5762L16.2014 13.8428C16.5617 14.4791 16.7521 15.1998 16.7522 15.9346V15.9355C16.7504 17.0611 16.302 18.1397 15.5061 18.9355C14.7102 19.7314 13.6316 20.1798 12.5061 20.1816H12.5051C11.6655 20.1816 10.8449 19.9322 10.1467 19.4658C9.53573 19.0576 9.04217 18.4988 8.71313 17.8457L8.58228 17.5596C8.26102 16.7838 8.17725 15.93 8.34106 15.1064C8.50494 14.2828 8.90935 13.5264 9.50317 12.9326L9.73267 12.7188C10.2866 12.2412 10.9562 11.9139 11.677 11.7705L11.9875 11.7207ZM12.5051 12.249C11.7762 12.2491 11.0634 12.4651 10.4573 12.8701C9.92694 13.2245 9.49874 13.7095 9.21313 14.2764L9.09985 14.5244C8.82086 15.198 8.74767 15.9392 8.88989 16.6543C9.03214 17.3694 9.38315 18.0265 9.89868 18.542L10.0989 18.7275C10.5797 19.142 11.1608 19.4263 11.7864 19.5508L12.0559 19.5938C12.686 19.6712 13.3269 19.5849 13.9163 19.3408L14.1643 19.2275C14.7312 18.9419 15.2161 18.5137 15.5706 17.9834C15.9755 17.3773 16.1916 16.6645 16.1917 15.9355L16.1868 15.7529C16.1435 14.9026 15.8081 14.0929 15.2366 13.4619L15.1106 13.3301C14.428 12.6475 13.5056 12.2599 12.5413 12.249H12.5051Z" fill="#686868" stroke="#686868" stroke-width="0.24"/>
<path d="M20.6145 13.8486C20.6887 13.8486 20.7602 13.8782 20.8127 13.9307L20.8479 13.9736C20.8783 14.0192 20.8948 14.0733 20.8948 14.1289V17.7432L20.8889 17.7979C20.8816 17.8338 20.8674 17.868 20.8469 17.8984L20.8127 17.9404C20.7733 17.9797 20.723 18.0059 20.6692 18.0166L20.6145 18.0225H18.5461C18.4904 18.0225 18.4365 18.0051 18.3909 17.9746L18.3479 17.9404C18.2954 17.888 18.2659 17.8164 18.2659 17.7422C18.2659 17.6679 18.2954 17.5965 18.3479 17.5439L18.3909 17.5088C18.4365 17.4785 18.4906 17.4619 18.5461 17.4619H20.3352V14.4092H18.5461C18.4904 14.4092 18.4365 14.3918 18.3909 14.3613L18.3479 14.3271C18.2954 14.2747 18.2659 14.2031 18.2659 14.1289C18.2659 14.0546 18.2954 13.9832 18.3479 13.9307L18.3909 13.8955C18.4365 13.8652 18.4906 13.8486 18.5461 13.8486H20.6145Z" fill="#686868" stroke="#686868" stroke-width="0.24"/>
<path d="M21.6379 12.7588C21.8102 12.7588 21.9809 12.793 22.1399 12.8594C22.2989 12.9258 22.4436 13.0229 22.5647 13.1455L22.6506 13.2422C22.7315 13.3421 22.7976 13.4536 22.8459 13.5732L22.8879 13.6953C22.924 13.8184 22.942 13.9464 22.9407 14.0752V17.7949C22.94 18.0968 22.8345 18.3877 22.6448 18.6191L22.5579 18.7148C22.3443 18.9281 22.0645 19.0599 21.7668 19.0898L21.6379 19.0957C21.3359 19.0953 21.0444 18.9906 20.8127 18.8008L20.717 18.7139C20.4731 18.4698 20.3357 18.139 20.3352 17.7939V14.0752C20.3334 13.9034 20.3656 13.7326 20.4299 13.5732L20.4846 13.4561C20.5444 13.3422 20.6205 13.2373 20.7112 13.1455L20.8069 13.0586C20.906 12.9765 21.0168 12.9091 21.136 12.8594L21.2571 12.8154C21.3802 12.7778 21.5087 12.7588 21.6379 12.7588ZM21.6282 13.332C21.4839 13.3342 21.3442 13.3779 21.2258 13.457L21.1135 13.5498C20.9743 13.689 20.8961 13.8783 20.8958 14.0752V17.792L20.9114 17.9365C20.9414 18.0776 21.0123 18.2078 21.1165 18.3105L21.2288 18.4023C21.3492 18.4818 21.4915 18.5244 21.6379 18.5244C21.8331 18.5244 22.0205 18.4476 22.1594 18.3105L22.2522 18.1992C22.3329 18.0804 22.3778 17.9397 22.3801 17.7939V14.0752L22.3655 13.9297C22.3463 13.8348 22.3088 13.7446 22.2551 13.6641L22.1624 13.5508C22.0232 13.4116 21.8347 13.3334 21.6379 13.333L21.6282 13.332Z" fill="#686868" stroke="#686868" stroke-width="0.24"/>
<path d="M6.45349 13.8525C6.52772 13.8525 6.59923 13.8821 6.65173 13.9346L6.68689 13.9775C6.71724 14.0232 6.73376 14.0772 6.73376 14.1328C6.73373 14.1884 6.7173 14.2425 6.68689 14.2881L6.65173 14.3311C6.59924 14.3834 6.52765 14.4131 6.45349 14.4131H4.66541V17.4668H6.45349C6.52773 17.4668 6.59923 17.4964 6.65173 17.5488C6.70424 17.6013 6.73376 17.6728 6.73376 17.7471C6.73372 17.8213 6.7042 17.8928 6.65173 17.9453C6.59925 17.9977 6.52765 18.0273 6.45349 18.0273H4.38513C4.32943 18.0273 4.27552 18.0099 4.22986 17.9795L4.18689 17.9453C4.13442 17.8928 4.1049 17.8213 4.10486 17.7471V14.1328L4.11072 14.0781C4.12144 14.0242 4.14744 13.974 4.18689 13.9346L4.22986 13.8994C4.27546 13.8691 4.32955 13.8525 4.38513 13.8525H6.45349Z" fill="#686868" stroke="#686868" stroke-width="0.24"/>
<path d="M3.49121 12.7695C3.61927 12.7823 3.74507 12.8135 3.86426 12.8633L3.98047 12.9189C4.09384 12.9801 4.19818 13.0575 4.28906 13.1494L4.375 13.2461C4.45586 13.346 4.52196 13.4575 4.57031 13.5771L4.6123 13.6992C4.64837 13.8223 4.6664 13.9503 4.66504 14.0791V17.7988C4.66444 18.1007 4.5589 18.3916 4.36914 18.623L4.28223 18.7188C4.0687 18.932 3.78891 19.0638 3.49121 19.0938L3.3623 19.1006C3.06013 19.1002 2.76878 18.9946 2.53711 18.8047L2.44141 18.7188C2.19725 18.4746 2.05999 18.1431 2.05957 17.7979V14.0791C2.05776 13.9073 2.08992 13.7365 2.1543 13.5771L2.20898 13.46C2.26875 13.3461 2.34482 13.2412 2.43555 13.1494L2.53125 13.0625C2.63032 12.9804 2.74118 12.913 2.86035 12.8633L2.98145 12.8193C3.1046 12.7817 3.23305 12.7627 3.3623 12.7627L3.49121 12.7695ZM3.2168 13.3506C3.12178 13.3698 3.03178 13.4081 2.95117 13.4619L2.83789 13.5547C2.69885 13.6939 2.62038 13.8823 2.62012 14.0791V17.7998C2.61878 17.8981 2.63713 17.9957 2.67383 18.0869L2.74121 18.2168C2.76809 18.2578 2.79937 18.2959 2.83398 18.3311L2.94727 18.4248C2.9878 18.4522 3.03083 18.4762 3.07617 18.4951L3.2168 18.5381C3.26459 18.5477 3.31333 18.5527 3.3623 18.5527C3.46067 18.5527 3.55866 18.5331 3.64941 18.4951L3.77832 18.4248C3.81879 18.3974 3.85713 18.366 3.8916 18.3311L3.9834 18.2168C4.01017 18.1759 4.03344 18.1325 4.05176 18.0869L4.09277 17.9463C4.10177 17.8981 4.10614 17.849 4.10547 17.7998V14.0791L4.09082 13.9336C4.06217 13.7909 3.99211 13.6582 3.8877 13.5537C3.74847 13.4144 3.55924 13.3363 3.3623 13.3359L3.2168 13.3506Z" fill="#686868" stroke="#686868" stroke-width="0.24"/>
<path d="M15.1647 7.0127C15.2389 7.0127 15.3104 7.04231 15.3629 7.09473L15.3981 7.1377C15.4285 7.18333 15.4449 7.23733 15.4449 7.29297V10.2197C15.4449 10.2753 15.4284 10.3294 15.3981 10.375L15.3629 10.418C15.3104 10.4704 15.2389 10.5 15.1647 10.5C15.1091 10.4999 15.055 10.4836 15.0094 10.4531L14.9674 10.418C14.9149 10.3655 14.8854 10.294 14.8854 10.2197V7.57324H10.1227V10.2197C10.1227 10.2754 10.1052 10.3294 10.0748 10.375L10.0406 10.418C9.98818 10.4704 9.91661 10.5 9.84241 10.5C9.78681 10.5 9.73275 10.4835 9.68713 10.4531L9.64417 10.418C9.5917 10.3655 9.56213 10.294 9.56213 10.2197V7.29297C9.56213 7.21871 9.59165 7.14724 9.64417 7.09473L9.68713 7.05957C9.73274 7.02924 9.78683 7.0127 9.84241 7.0127H15.1647Z" fill="#686868" stroke="#686868" stroke-width="0.24"/>
<path d="M11.2523 4.2666C11.3265 4.26664 11.3981 4.29616 11.4506 4.34863L11.4847 4.3916C11.5152 4.43727 11.5326 4.49117 11.5326 4.54688V7.29004C11.5326 7.34578 11.5153 7.39964 11.4847 7.44531L11.4506 7.48828C11.3981 7.54076 11.3265 7.57027 11.2523 7.57031C11.1966 7.57031 11.1427 7.55293 11.097 7.52246L11.0541 7.48828C11.0016 7.4358 10.9721 7.36426 10.972 7.29004V4.54688L10.9779 4.49219C10.9886 4.43826 11.0146 4.38808 11.0541 4.34863L11.097 4.31348C11.1426 4.28315 11.1967 4.2666 11.2523 4.2666Z" fill="#686868" stroke="#686868" stroke-width="0.24"/>
<path d="M13.7585 4.2666C13.8327 4.26664 13.9043 4.29616 13.9568 4.34863L13.991 4.3916C14.0214 4.43727 14.0388 4.49117 14.0388 4.54688V7.29004C14.0388 7.34578 14.0215 7.39964 13.991 7.44531L13.9568 7.48828C13.9043 7.54076 13.8327 7.57027 13.7585 7.57031C13.7028 7.57031 13.6489 7.55293 13.6033 7.52246L13.5603 7.48828C13.5078 7.4358 13.4783 7.36426 13.4783 7.29004V4.54688L13.4841 4.49219C13.4949 4.43826 13.5209 4.38808 13.5603 4.34863L13.6033 4.31348C13.6489 4.28315 13.703 4.2666 13.7585 4.2666Z" fill="#686868" stroke="#686868" stroke-width="0.24"/>
<path d="M12.5039 10.2432C12.5781 10.2432 12.6497 10.2727 12.7021 10.3252L12.7363 10.3682C12.7668 10.4138 12.7842 10.4677 12.7842 10.5234V11.124C12.7841 11.1798 12.7669 11.2336 12.7363 11.2793L12.7021 11.3213C12.6497 11.3738 12.5781 11.4033 12.5039 11.4033C12.4482 11.4033 12.3943 11.3869 12.3486 11.3564L12.3057 11.3213C12.2534 11.2689 12.2237 11.1981 12.2236 11.124V10.5234L12.2295 10.4688C12.2402 10.4148 12.2662 10.3646 12.3057 10.3252L12.3486 10.29C12.3942 10.2597 12.4483 10.2432 12.5039 10.2432Z" fill="#686868" stroke="#686868" stroke-width="0.24"/>
<path d="M9.03259 11.5332C9.06668 11.5421 9.09887 11.5574 9.12732 11.5781L9.16736 11.6143L9.17126 11.6182L9.55701 12.0781L9.599 12.1455C9.60961 12.1696 9.61701 12.1953 9.62048 12.2217L9.61951 12.3008C9.6155 12.3269 9.60733 12.3528 9.59607 12.377C9.57362 12.4249 9.53812 12.4656 9.49353 12.4941C9.4487 12.5228 9.39632 12.538 9.34314 12.5381H9.22302V12.5107C9.20494 12.5022 9.18801 12.4916 9.17224 12.4795L9.1283 12.4375L8.74255 11.9775L8.73767 11.9727C8.69486 11.9154 8.67577 11.8435 8.68396 11.7725L8.69568 11.7197C8.7117 11.6694 8.7415 11.6242 8.78259 11.5898L8.82654 11.5596C8.87295 11.5339 8.92619 11.522 8.97986 11.5254L9.03259 11.5332Z" fill="#686868" stroke="#686868" stroke-width="0.24"/>
<path d="M7.10522 14.7812L7.10815 14.7822L7.70093 14.8867L7.75073 14.9004C7.79916 14.9188 7.84192 14.9505 7.87378 14.9922C7.90557 15.0338 7.92441 15.0833 7.92944 15.1348L7.93042 15.1865C7.92584 15.2385 7.90652 15.2878 7.87573 15.3291L7.84058 15.3682C7.78938 15.4152 7.72258 15.4419 7.65308 15.4424H7.6521C7.6354 15.4424 7.61871 15.4406 7.60229 15.4375V15.4365L7.01147 15.333H7.00854C6.95478 15.3221 6.90541 15.2958 6.86694 15.2578L6.83276 15.2158C6.79172 15.1555 6.77518 15.0816 6.78784 15.0098L6.80249 14.958C6.82188 14.9075 6.85564 14.8631 6.90015 14.8311L6.94702 14.8037C6.97985 14.7886 7.01542 14.7799 7.05151 14.7783L7.10522 14.7812Z" fill="#686868" stroke="#686868" stroke-width="0.24"/>
<path d="M8.29358 18.1982L8.34436 18.2178C8.36074 18.2258 8.37667 18.2349 8.39124 18.2461L8.43127 18.2842C8.44334 18.2979 8.45431 18.3132 8.4635 18.3291L8.48596 18.3789C8.49181 18.3962 8.49627 18.4144 8.49866 18.4326L8.50061 18.4873L8.49084 18.541C8.48608 18.5588 8.48039 18.5764 8.47229 18.5928L8.44299 18.6396C8.43186 18.6541 8.41954 18.6677 8.40588 18.6797L8.36096 18.7109L7.83948 19.0117C7.81854 19.0237 7.79619 19.0328 7.77307 19.0391L7.70081 19.0488C7.67011 19.0488 7.63966 19.0439 7.61096 19.0342L7.52991 18.9912C7.50551 18.9725 7.48427 18.95 7.46741 18.9248L7.4303 18.8418C7.41437 18.7824 7.41853 18.719 7.44202 18.6621L7.48987 18.584C7.50983 18.5612 7.53364 18.5417 7.56018 18.5264L8.08069 18.2266L8.13049 18.2031C8.14784 18.1972 8.16595 18.1938 8.1842 18.1914L8.23889 18.1895C8.25725 18.1906 8.27573 18.1935 8.29358 18.1982Z" fill="#686868" stroke="#686868" stroke-width="0.24"/>
<path d="M16.7633 18.2266L16.817 18.2393C16.8342 18.2452 16.851 18.2525 16.8668 18.2617L16.8658 18.2627L17.3864 18.5625L17.4567 18.6201C17.4766 18.6429 17.4927 18.6689 17.5045 18.6973L17.526 18.7861L17.5162 18.877C17.5083 18.9066 17.4959 18.9347 17.4791 18.96L17.4166 19.0264C17.3677 19.0639 17.3074 19.084 17.2457 19.084C17.2212 19.084 17.1969 19.0815 17.1735 19.0752L17.1061 19.0469L16.5856 18.7471V18.7461C16.5699 18.7371 16.5552 18.7266 16.5416 18.7148L16.5035 18.6758C16.4923 18.6612 16.4824 18.6453 16.4742 18.6289L16.4547 18.5771C16.445 18.5415 16.4431 18.5044 16.4479 18.4678L16.4596 18.4141C16.4655 18.3966 16.4738 18.3793 16.483 18.3633L16.5143 18.3193C16.5265 18.3054 16.5405 18.2926 16.5553 18.2812L16.6022 18.252C16.6186 18.244 16.6362 18.2381 16.6539 18.2334L16.7076 18.2246C16.7261 18.2235 16.7449 18.224 16.7633 18.2266Z" fill="#686868" stroke="#686868" stroke-width="0.24"/>
<path d="M17.9746 14.8193L18.0283 14.8359C18.0453 14.8431 18.0618 14.8519 18.0771 14.8623C18.1079 14.8833 18.1341 14.9102 18.1543 14.9414C18.1746 14.9728 18.1888 15.0081 18.1953 15.0449L18.1992 15.1006C18.1988 15.1192 18.1965 15.138 18.1924 15.1562C18.1882 15.1744 18.1824 15.1921 18.1748 15.209L18.1465 15.2568C18.1355 15.272 18.1231 15.2862 18.1094 15.2988L18.0654 15.333C18.0342 15.3521 17.9991 15.3634 17.9629 15.3691L17.9639 15.3701L17.3721 15.4746L17.3711 15.4736C17.3553 15.4765 17.3393 15.4785 17.3232 15.4785H17.3223C17.27 15.4782 17.2195 15.4629 17.1758 15.4355L17.1348 15.4043C17.0964 15.3689 17.0686 15.324 17.0547 15.2744L17.0449 15.2227C17.0389 15.1532 17.0592 15.0837 17.1016 15.0283L17.1367 14.9902C17.1751 14.9557 17.2229 14.9322 17.2744 14.9229L17.8672 14.8184V14.8193C17.9028 14.8126 17.9391 14.8122 17.9746 14.8193Z" fill="#686868" stroke="#686868" stroke-width="0.24"/>
<path d="M16.0729 11.5498C16.1256 11.5566 16.1761 11.5786 16.2174 11.6133L16.2545 11.6514C16.2882 11.6929 16.3092 11.744 16.3151 11.7979L16.316 11.8516C16.3116 11.9044 16.2921 11.9553 16.2594 11.998L16.2555 12.0029L15.8698 12.4629C15.8566 12.4785 15.8419 12.4926 15.8258 12.5049L15.774 12.5361C15.7371 12.5534 15.6966 12.5624 15.6559 12.5625H15.6549C15.6283 12.5624 15.6021 12.5582 15.5768 12.5508L15.5055 12.5186C15.483 12.5042 15.4623 12.4867 15.4449 12.4668L15.402 12.4004C15.3796 12.3522 15.3716 12.2988 15.3785 12.2461L15.399 12.1699C15.4097 12.1457 15.4239 12.123 15.441 12.1025L15.8268 11.6426L15.8307 11.6387L15.8707 11.6025C15.9136 11.5709 15.9653 11.5523 16.0192 11.5488L16.0729 11.5498Z" fill="#686868" stroke="#686868" stroke-width="0.24"/>
<path d="M16.9297 1.48145V1.48242C17.1504 1.48036 17.3697 1.52158 17.5742 1.60449C17.779 1.68758 17.966 1.81032 18.123 1.96582L18.2344 2.08789C18.3397 2.21515 18.4254 2.35772 18.4893 2.51074L18.5459 2.66602C18.5942 2.82419 18.6191 2.98928 18.6191 3.15527C18.6191 3.32104 18.5941 3.48559 18.5459 3.64355L18.4893 3.7998C18.4254 3.95278 18.3397 4.09545 18.2344 4.22266L18.123 4.34473C18.0051 4.46146 17.87 4.55882 17.7236 4.63574L17.5742 4.70605C17.3697 4.78897 17.1504 4.82921 16.9297 4.82715V4.82812H8.07812V4.82715C7.91263 4.82872 7.74804 4.80728 7.58984 4.76074L7.43359 4.70605C7.22866 4.62299 7.04193 4.50028 6.88477 4.34473C6.76676 4.22791 6.66729 4.09391 6.58887 3.94824L6.51758 3.7998C6.43245 3.59575 6.38871 3.37637 6.38867 3.15527L6.39648 2.98926C6.41283 2.82497 6.45379 2.66368 6.51758 2.51074L6.58887 2.36133C6.66723 2.21585 6.76691 2.08251 6.88477 1.96582L7.00781 1.85547C7.13623 1.75128 7.27978 1.66685 7.43359 1.60449C7.63825 1.52154 7.85731 1.48032 8.07812 1.48242V1.48145H16.9297ZM7.9668 2.0459C7.89365 2.05231 7.82144 2.06627 7.75098 2.08691L7.64648 2.12305C7.54412 2.16446 7.44877 2.22079 7.36328 2.29004L7.28125 2.36328C7.20261 2.44103 7.13625 2.52996 7.08398 2.62695L7.03613 2.72559C6.97938 2.8615 6.9502 3.00799 6.9502 3.15527C6.95023 3.30241 6.97946 3.4482 7.03613 3.58398L7.08398 3.68359C7.13621 3.78042 7.20273 3.86963 7.28125 3.94727L7.36328 4.02051C7.44876 4.0897 7.54415 4.14613 7.64648 4.1875L7.75098 4.22363C7.85636 4.2545 7.96596 4.26976 8.07617 4.26855H16.9307L17.041 4.26465C17.1507 4.25502 17.2589 4.2289 17.3613 4.1875C17.4977 4.13233 17.6219 4.05066 17.7266 3.94727L17.8008 3.86523C17.8709 3.78056 17.9282 3.68582 17.9707 3.58398L18.0088 3.48047C18.0409 3.3753 18.0566 3.26564 18.0566 3.15527C18.0566 3.04499 18.0408 2.93518 18.0088 2.83008L17.9707 2.72559C17.9281 2.62378 17.8709 2.52897 17.8008 2.44434L17.7266 2.36328C17.622 2.25986 17.4977 2.17824 17.3613 2.12305C17.2248 2.06785 17.0779 2.04031 16.9307 2.04199H8.07617L7.9668 2.0459Z" fill="#686868" stroke="#686868" stroke-width="0.24"/>
<path d="M11.4609 9.43262C12.6632 9.23944 13.8974 9.38245 15.0254 9.84961L15.249 9.94727C16.3563 10.4547 17.303 11.26 17.9814 12.2754L18.1123 12.4805C18.7512 13.5176 19.0908 14.7133 19.0908 15.9346L19.082 16.2607C18.9992 17.8876 18.3165 19.4306 17.1592 20.5879C16.0019 21.7452 14.4589 22.4279 12.832 22.5107L12.5059 22.5195C11.2846 22.5195 10.0888 22.1799 9.05176 21.541L8.84668 21.4102C7.83133 20.7317 7.02595 19.785 6.51855 18.6777L6.4209 18.4541C5.92258 17.2509 5.7928 15.9267 6.04688 14.6494L6.09863 14.4111C6.38029 13.2263 6.98522 12.1408 7.84863 11.2773L8.02441 11.1084C8.91687 10.2797 10.0231 9.71382 11.2207 9.47559L11.4609 9.43262ZM12.5049 9.90918C11.3879 9.90929 10.2943 10.2195 9.3457 10.8037L9.1582 10.9248C8.22935 11.5454 7.49258 12.4109 7.02832 13.4238L6.93848 13.6289C6.48256 14.7298 6.36322 15.9417 6.5957 17.1104C6.82826 18.279 7.40252 19.3527 8.24512 20.1953L8.40527 20.3496C9.2219 21.108 10.2342 21.6258 11.3301 21.8438L11.5498 21.8838C12.65 22.0605 13.7794 21.9285 14.8115 21.501C15.9124 21.0449 16.8536 20.273 17.5156 19.2822L17.6357 19.0938C18.22 18.145 18.5312 17.0517 18.5312 15.9346L18.5234 15.6357C18.4476 14.1471 17.8226 12.7347 16.7637 11.6758C15.6341 10.5464 14.1022 9.91138 12.5049 9.90918Z" fill="#686868" stroke="#686868" stroke-width="0.24"/>
<path d="M11.9875 11.7207C12.7132 11.6315 13.4514 11.7307 14.1301 12.0117L14.4163 12.1426C15.0694 12.4716 15.6281 12.9652 16.0364 13.5762L16.2014 13.8428C16.5617 14.4791 16.7521 15.1998 16.7522 15.9346V15.9355C16.7504 17.0611 16.302 18.1397 15.5061 18.9355C14.7102 19.7314 13.6316 20.1798 12.5061 20.1816H12.5051C11.6655 20.1816 10.8449 19.9322 10.1467 19.4658C9.53573 19.0576 9.04217 18.4988 8.71313 17.8457L8.58228 17.5596C8.26102 16.7838 8.17725 15.93 8.34106 15.1064C8.50494 14.2828 8.90935 13.5264 9.50317 12.9326L9.73267 12.7188C10.2866 12.2412 10.9562 11.9139 11.677 11.7705L11.9875 11.7207ZM12.5051 12.249C11.7762 12.2491 11.0634 12.4651 10.4573 12.8701C9.92694 13.2245 9.49874 13.7095 9.21313 14.2764L9.09985 14.5244C8.82086 15.198 8.74767 15.9392 8.88989 16.6543C9.03214 17.3694 9.38315 18.0265 9.89868 18.542L10.0989 18.7275C10.5797 19.142 11.1608 19.4263 11.7864 19.5508L12.0559 19.5938C12.686 19.6712 13.3269 19.5849 13.9163 19.3408L14.1643 19.2275C14.7312 18.9419 15.2161 18.5137 15.5706 17.9834C15.9755 17.3773 16.1916 16.6645 16.1917 15.9355L16.1868 15.7529C16.1435 14.9026 15.8081 14.0929 15.2366 13.4619L15.1106 13.3301C14.428 12.6475 13.5056 12.2599 12.5413 12.249H12.5051Z" fill="#686868" stroke="#686868" stroke-width="0.24"/>
<path d="M20.6145 13.8486C20.6887 13.8486 20.7602 13.8782 20.8127 13.9307L20.8479 13.9736C20.8783 14.0192 20.8948 14.0733 20.8948 14.1289V17.7432L20.8889 17.7979C20.8816 17.8338 20.8674 17.868 20.8469 17.8984L20.8127 17.9404C20.7733 17.9797 20.723 18.0059 20.6692 18.0166L20.6145 18.0225H18.5461C18.4904 18.0225 18.4365 18.0051 18.3909 17.9746L18.3479 17.9404C18.2954 17.888 18.2659 17.8164 18.2659 17.7422C18.2659 17.6679 18.2954 17.5965 18.3479 17.5439L18.3909 17.5088C18.4365 17.4785 18.4906 17.4619 18.5461 17.4619H20.3352V14.4092H18.5461C18.4904 14.4092 18.4365 14.3918 18.3909 14.3613L18.3479 14.3271C18.2954 14.2747 18.2659 14.2031 18.2659 14.1289C18.2659 14.0546 18.2954 13.9832 18.3479 13.9307L18.3909 13.8955C18.4365 13.8652 18.4906 13.8486 18.5461 13.8486H20.6145Z" fill="#686868" stroke="#686868" stroke-width="0.24"/>
<path d="M21.6379 12.7588C21.8102 12.7588 21.9809 12.793 22.1399 12.8594C22.2989 12.9258 22.4436 13.0229 22.5647 13.1455L22.6506 13.2422C22.7315 13.3421 22.7976 13.4536 22.8459 13.5732L22.8879 13.6953C22.924 13.8184 22.942 13.9464 22.9407 14.0752V17.7949C22.94 18.0968 22.8345 18.3877 22.6448 18.6191L22.5579 18.7148C22.3443 18.9281 22.0645 19.0599 21.7668 19.0898L21.6379 19.0957C21.3359 19.0953 21.0444 18.9906 20.8127 18.8008L20.717 18.7139C20.4731 18.4698 20.3357 18.139 20.3352 17.7939V14.0752C20.3334 13.9034 20.3656 13.7326 20.4299 13.5732L20.4846 13.4561C20.5444 13.3422 20.6205 13.2373 20.7112 13.1455L20.8069 13.0586C20.906 12.9765 21.0168 12.9091 21.136 12.8594L21.2571 12.8154C21.3802 12.7778 21.5087 12.7588 21.6379 12.7588ZM21.6282 13.332C21.4839 13.3342 21.3442 13.3779 21.2258 13.457L21.1135 13.5498C20.9743 13.689 20.8961 13.8783 20.8958 14.0752V17.792L20.9114 17.9365C20.9414 18.0776 21.0123 18.2078 21.1165 18.3105L21.2288 18.4023C21.3492 18.4818 21.4915 18.5244 21.6379 18.5244C21.8331 18.5244 22.0205 18.4476 22.1594 18.3105L22.2522 18.1992C22.3329 18.0804 22.3778 17.9397 22.3801 17.7939V14.0752L22.3655 13.9297C22.3463 13.8348 22.3088 13.7446 22.2551 13.6641L22.1624 13.5508C22.0232 13.4116 21.8347 13.3334 21.6379 13.333L21.6282 13.332Z" fill="#686868" stroke="#686868" stroke-width="0.24"/>
<path d="M6.45349 13.8525C6.52772 13.8525 6.59923 13.8821 6.65173 13.9346L6.68689 13.9775C6.71724 14.0232 6.73376 14.0772 6.73376 14.1328C6.73373 14.1884 6.7173 14.2425 6.68689 14.2881L6.65173 14.3311C6.59924 14.3834 6.52765 14.4131 6.45349 14.4131H4.66541V17.4668H6.45349C6.52773 17.4668 6.59923 17.4964 6.65173 17.5488C6.70424 17.6013 6.73376 17.6728 6.73376 17.7471C6.73372 17.8213 6.7042 17.8928 6.65173 17.9453C6.59925 17.9977 6.52765 18.0273 6.45349 18.0273H4.38513C4.32943 18.0273 4.27552 18.0099 4.22986 17.9795L4.18689 17.9453C4.13442 17.8928 4.1049 17.8213 4.10486 17.7471V14.1328L4.11072 14.0781C4.12144 14.0242 4.14744 13.974 4.18689 13.9346L4.22986 13.8994C4.27546 13.8691 4.32955 13.8525 4.38513 13.8525H6.45349Z" fill="#686868" stroke="#686868" stroke-width="0.24"/>
<path d="M3.49121 12.7695C3.61927 12.7823 3.74507 12.8135 3.86426 12.8633L3.98047 12.9189C4.09384 12.9801 4.19818 13.0575 4.28906 13.1494L4.375 13.2461C4.45586 13.346 4.52196 13.4575 4.57031 13.5771L4.6123 13.6992C4.64837 13.8223 4.6664 13.9503 4.66504 14.0791V17.7988C4.66444 18.1007 4.5589 18.3916 4.36914 18.623L4.28223 18.7188C4.0687 18.932 3.78891 19.0638 3.49121 19.0938L3.3623 19.1006C3.06013 19.1002 2.76878 18.9946 2.53711 18.8047L2.44141 18.7188C2.19725 18.4746 2.05999 18.1431 2.05957 17.7979V14.0791C2.05776 13.9073 2.08992 13.7365 2.1543 13.5771L2.20898 13.46C2.26875 13.3461 2.34482 13.2412 2.43555 13.1494L2.53125 13.0625C2.63032 12.9804 2.74118 12.913 2.86035 12.8633L2.98145 12.8193C3.1046 12.7817 3.23305 12.7627 3.3623 12.7627L3.49121 12.7695ZM3.2168 13.3506C3.12178 13.3698 3.03178 13.4081 2.95117 13.4619L2.83789 13.5547C2.69885 13.6939 2.62038 13.8823 2.62012 14.0791V17.7998C2.61878 17.8981 2.63713 17.9957 2.67383 18.0869L2.74121 18.2168C2.76809 18.2578 2.79937 18.2959 2.83398 18.3311L2.94727 18.4248C2.9878 18.4522 3.03083 18.4762 3.07617 18.4951L3.2168 18.5381C3.26459 18.5477 3.31333 18.5527 3.3623 18.5527C3.46067 18.5527 3.55866 18.5331 3.64941 18.4951L3.77832 18.4248C3.81879 18.3974 3.85713 18.366 3.8916 18.3311L3.9834 18.2168C4.01017 18.1759 4.03344 18.1325 4.05176 18.0869L4.09277 17.9463C4.10177 17.8981 4.10614 17.849 4.10547 17.7998V14.0791L4.09082 13.9336C4.06217 13.7909 3.99211 13.6582 3.8877 13.5537C3.74847 13.4144 3.55924 13.3363 3.3623 13.3359L3.2168 13.3506Z" fill="#686868" stroke="#686868" stroke-width="0.24"/>
<path d="M15.1647 7.0127C15.2389 7.0127 15.3104 7.04231 15.3629 7.09473L15.3981 7.1377C15.4285 7.18333 15.4449 7.23733 15.4449 7.29297V10.2197C15.4449 10.2753 15.4284 10.3294 15.3981 10.375L15.3629 10.418C15.3104 10.4704 15.2389 10.5 15.1647 10.5C15.1091 10.4999 15.055 10.4836 15.0094 10.4531L14.9674 10.418C14.9149 10.3655 14.8854 10.294 14.8854 10.2197V7.57324H10.1227V10.2197C10.1227 10.2754 10.1052 10.3294 10.0748 10.375L10.0406 10.418C9.98818 10.4704 9.91661 10.5 9.84241 10.5C9.78681 10.5 9.73275 10.4835 9.68713 10.4531L9.64417 10.418C9.5917 10.3655 9.56213 10.294 9.56213 10.2197V7.29297C9.56213 7.21871 9.59165 7.14724 9.64417 7.09473L9.68713 7.05957C9.73274 7.02924 9.78683 7.0127 9.84241 7.0127H15.1647Z" fill="#686868" stroke="#686868" stroke-width="0.24"/>
<path d="M11.2523 4.2666C11.3265 4.26664 11.3981 4.29616 11.4506 4.34863L11.4847 4.3916C11.5152 4.43727 11.5326 4.49117 11.5326 4.54688V7.29004C11.5326 7.34578 11.5153 7.39964 11.4847 7.44531L11.4506 7.48828C11.3981 7.54076 11.3265 7.57027 11.2523 7.57031C11.1966 7.57031 11.1427 7.55293 11.097 7.52246L11.0541 7.48828C11.0016 7.4358 10.9721 7.36426 10.972 7.29004V4.54688L10.9779 4.49219C10.9886 4.43826 11.0146 4.38808 11.0541 4.34863L11.097 4.31348C11.1426 4.28315 11.1967 4.2666 11.2523 4.2666Z" fill="#686868" stroke="#686868" stroke-width="0.24"/>
<path d="M13.7585 4.2666C13.8327 4.26664 13.9043 4.29616 13.9568 4.34863L13.991 4.3916C14.0214 4.43727 14.0388 4.49117 14.0388 4.54688V7.29004C14.0388 7.34578 14.0215 7.39964 13.991 7.44531L13.9568 7.48828C13.9043 7.54076 13.8327 7.57027 13.7585 7.57031C13.7028 7.57031 13.6489 7.55293 13.6033 7.52246L13.5603 7.48828C13.5078 7.4358 13.4783 7.36426 13.4783 7.29004V4.54688L13.4841 4.49219C13.4949 4.43826 13.5209 4.38808 13.5603 4.34863L13.6033 4.31348C13.6489 4.28315 13.703 4.2666 13.7585 4.2666Z" fill="#686868" stroke="#686868" stroke-width="0.24"/>
<path d="M12.5039 10.2432C12.5781 10.2432 12.6497 10.2727 12.7021 10.3252L12.7363 10.3682C12.7668 10.4138 12.7842 10.4677 12.7842 10.5234V11.124C12.7841 11.1798 12.7669 11.2336 12.7363 11.2793L12.7021 11.3213C12.6497 11.3738 12.5781 11.4033 12.5039 11.4033C12.4482 11.4033 12.3943 11.3869 12.3486 11.3564L12.3057 11.3213C12.2534 11.2689 12.2237 11.1981 12.2236 11.124V10.5234L12.2295 10.4688C12.2402 10.4148 12.2662 10.3646 12.3057 10.3252L12.3486 10.29C12.3942 10.2597 12.4483 10.2432 12.5039 10.2432Z" fill="#686868" stroke="#686868" stroke-width="0.24"/>
<path d="M9.03259 11.5332C9.06668 11.5421 9.09887 11.5574 9.12732 11.5781L9.16736 11.6143L9.17126 11.6182L9.55701 12.0781L9.599 12.1455C9.60961 12.1696 9.61701 12.1953 9.62048 12.2217L9.61951 12.3008C9.6155 12.3269 9.60733 12.3528 9.59607 12.377C9.57362 12.4249 9.53812 12.4656 9.49353 12.4941C9.4487 12.5228 9.39632 12.538 9.34314 12.5381H9.22302V12.5107C9.20494 12.5022 9.18801 12.4916 9.17224 12.4795L9.1283 12.4375L8.74255 11.9775L8.73767 11.9727C8.69486 11.9154 8.67577 11.8435 8.68396 11.7725L8.69568 11.7197C8.7117 11.6694 8.7415 11.6242 8.78259 11.5898L8.82654 11.5596C8.87295 11.5339 8.92619 11.522 8.97986 11.5254L9.03259 11.5332Z" fill="#686868" stroke="#686868" stroke-width="0.24"/>
<path d="M7.10522 14.7812L7.10815 14.7822L7.70093 14.8867L7.75073 14.9004C7.79916 14.9188 7.84192 14.9505 7.87378 14.9922C7.90557 15.0338 7.92441 15.0833 7.92944 15.1348L7.93042 15.1865C7.92584 15.2385 7.90652 15.2878 7.87573 15.3291L7.84058 15.3682C7.78938 15.4152 7.72258 15.4419 7.65308 15.4424H7.6521C7.6354 15.4424 7.61871 15.4406 7.60229 15.4375V15.4365L7.01147 15.333H7.00854C6.95478 15.3221 6.90541 15.2958 6.86694 15.2578L6.83276 15.2158C6.79172 15.1555 6.77518 15.0816 6.78784 15.0098L6.80249 14.958C6.82188 14.9075 6.85564 14.8631 6.90015 14.8311L6.94702 14.8037C6.97985 14.7886 7.01542 14.7799 7.05151 14.7783L7.10522 14.7812Z" fill="#686868" stroke="#686868" stroke-width="0.24"/>
<path d="M8.29358 18.1982L8.34436 18.2178C8.36074 18.2258 8.37667 18.2349 8.39124 18.2461L8.43127 18.2842C8.44334 18.2979 8.45431 18.3132 8.4635 18.3291L8.48596 18.3789C8.49181 18.3962 8.49627 18.4144 8.49866 18.4326L8.50061 18.4873L8.49084 18.541C8.48608 18.5588 8.48039 18.5764 8.47229 18.5928L8.44299 18.6396C8.43186 18.6541 8.41954 18.6677 8.40588 18.6797L8.36096 18.7109L7.83948 19.0117C7.81854 19.0237 7.79619 19.0328 7.77307 19.0391L7.70081 19.0488C7.67011 19.0488 7.63966 19.0439 7.61096 19.0342L7.52991 18.9912C7.50551 18.9725 7.48427 18.95 7.46741 18.9248L7.4303 18.8418C7.41437 18.7824 7.41853 18.719 7.44202 18.6621L7.48987 18.584C7.50983 18.5612 7.53364 18.5417 7.56018 18.5264L8.08069 18.2266L8.13049 18.2031C8.14784 18.1972 8.16595 18.1938 8.1842 18.1914L8.23889 18.1895C8.25725 18.1906 8.27573 18.1935 8.29358 18.1982Z" fill="#686868" stroke="#686868" stroke-width="0.24"/>
<path d="M16.7633 18.2266L16.817 18.2393C16.8342 18.2452 16.851 18.2525 16.8668 18.2617L16.8658 18.2627L17.3864 18.5625L17.4567 18.6201C17.4766 18.6429 17.4927 18.6689 17.5045 18.6973L17.526 18.7861L17.5162 18.877C17.5083 18.9066 17.4959 18.9347 17.4791 18.96L17.4166 19.0264C17.3677 19.0639 17.3074 19.084 17.2457 19.084C17.2212 19.084 17.1969 19.0815 17.1735 19.0752L17.1061 19.0469L16.5856 18.7471V18.7461C16.5699 18.7371 16.5552 18.7266 16.5416 18.7148L16.5035 18.6758C16.4923 18.6612 16.4824 18.6453 16.4742 18.6289L16.4547 18.5771C16.445 18.5415 16.4431 18.5044 16.4479 18.4678L16.4596 18.4141C16.4655 18.3966 16.4738 18.3793 16.483 18.3633L16.5143 18.3193C16.5265 18.3054 16.5405 18.2926 16.5553 18.2812L16.6022 18.252C16.6186 18.244 16.6362 18.2381 16.6539 18.2334L16.7076 18.2246C16.7261 18.2235 16.7449 18.224 16.7633 18.2266Z" fill="#686868" stroke="#686868" stroke-width="0.24"/>
<path d="M17.9746 14.8193L18.0283 14.8359C18.0453 14.8431 18.0618 14.8519 18.0771 14.8623C18.1079 14.8833 18.1341 14.9102 18.1543 14.9414C18.1746 14.9728 18.1888 15.0081 18.1953 15.0449L18.1992 15.1006C18.1988 15.1192 18.1965 15.138 18.1924 15.1562C18.1882 15.1744 18.1824 15.1921 18.1748 15.209L18.1465 15.2568C18.1355 15.272 18.1231 15.2862 18.1094 15.2988L18.0654 15.333C18.0342 15.3521 17.9991 15.3634 17.9629 15.3691L17.9639 15.3701L17.3721 15.4746L17.3711 15.4736C17.3553 15.4765 17.3393 15.4785 17.3232 15.4785H17.3223C17.27 15.4782 17.2195 15.4629 17.1758 15.4355L17.1348 15.4043C17.0964 15.3689 17.0686 15.324 17.0547 15.2744L17.0449 15.2227C17.0389 15.1532 17.0592 15.0837 17.1016 15.0283L17.1367 14.9902C17.1751 14.9557 17.2229 14.9322 17.2744 14.9229L17.8672 14.8184V14.8193C17.9028 14.8126 17.9391 14.8122 17.9746 14.8193Z" fill="#686868" stroke="#686868" stroke-width="0.24"/>
<path d="M16.0729 11.5498C16.1256 11.5566 16.1761 11.5786 16.2174 11.6133L16.2545 11.6514C16.2882 11.6929 16.3092 11.744 16.3151 11.7979L16.316 11.8516C16.3116 11.9044 16.2921 11.9553 16.2594 11.998L16.2555 12.0029L15.8698 12.4629C15.8566 12.4785 15.8419 12.4926 15.8258 12.5049L15.774 12.5361C15.7371 12.5534 15.6966 12.5624 15.6559 12.5625H15.6549C15.6283 12.5624 15.6021 12.5582 15.5768 12.5508L15.5055 12.5186C15.483 12.5042 15.4623 12.4867 15.4449 12.4668L15.402 12.4004C15.3796 12.3522 15.3716 12.2988 15.3785 12.2461L15.399 12.1699C15.4097 12.1457 15.4239 12.123 15.441 12.1025L15.8268 11.6426L15.8307 11.6387L15.8707 11.6025C15.9136 11.5709 15.9653 11.5523 16.0192 11.5488L16.0729 11.5498Z" fill="#686868" stroke="#686868" stroke-width="0.24"/>
</svg>
