<svg width="24" height="24" viewBox="0 0 24 24" fill="none" xmlns="http://www.w3.org/2000/svg">
<path d="M6.75 12C6.55109 12 6.36032 12.079 6.21967 12.2197C6.07902 12.3603 6 12.5511 6 12.75V16.5C6 16.6989 6.07902 16.8897 6.21967 17.0303C6.36032 17.171 6.55109 17.25 6.75 17.25C6.94891 17.25 7.13968 17.171 7.28033 17.0303C7.42098 16.8897 7.5 16.6989 7.5 16.5V15.75H7.875C8.37228 15.75 8.84919 15.5525 9.20083 15.2008C9.55246 14.8492 9.75 14.3723 9.75 13.875C9.75 13.3777 9.55246 12.9008 9.20083 12.5492C8.84919 12.1975 8.37228 12 7.875 12H6.75ZM7.875 14.25H7.5V13.5H7.875C7.97446 13.5 8.06984 13.5395 8.14017 13.6098C8.21049 13.6802 8.25 13.7755 8.25 13.875C8.25 13.9745 8.21049 14.0698 8.14017 14.1402C8.06984 14.2105 7.97446 14.25 7.875 14.25ZM10.5 12.75C10.5 12.5511 10.579 12.3603 10.7197 12.2197C10.8603 12.079 11.0511 12 11.25 12H11.625C12.3212 12 12.9889 12.2766 13.4812 12.7688C13.9734 13.2611 14.25 13.9288 14.25 14.625C14.25 15.3212 13.9734 15.9889 13.4812 16.4812C12.9889 16.9734 12.3212 17.25 11.625 17.25H11.25C11.0511 17.25 10.8603 17.171 10.7197 17.0303C10.579 16.8897 10.5 16.6989 10.5 16.5V12.75ZM12 15.6863C12.2197 15.6089 12.4101 15.4653 12.5447 15.2752C12.6794 15.0851 12.7517 14.8579 12.7517 14.625C12.7517 14.3921 12.6794 14.1649 12.5447 13.9748C12.4101 13.7847 12.2197 13.6411 12 13.5637V15.6863ZM15 16.5V12.75C15 12.5511 15.079 12.3603 15.2197 12.2197C15.3603 12.079 15.5511 12 15.75 12H18C18.1989 12 18.3897 12.079 18.5303 12.2197C18.671 12.3603 18.75 12.5511 18.75 12.75C18.75 12.9489 18.671 13.1397 18.5303 13.2803C18.3897 13.421 18.1989 13.5 18 13.5H16.5V14.25H18C18.1989 14.25 18.3897 14.329 18.5303 14.4697C18.671 14.6103 18.75 14.8011 18.75 15C18.75 15.1989 18.671 15.3897 18.5303 15.5303C18.3897 15.671 18.1989 15.75 18 15.75H16.5V16.5C16.5 16.6989 16.421 16.8897 16.2803 17.0303C16.1397 17.171 15.9489 17.25 15.75 17.25C15.5511 17.25 15.3603 17.171 15.2197 17.0303C15.079 16.8897 15 16.6989 15 16.5ZM4.5 3.75V9.75H3.75C3.35218 9.75 2.97064 9.90804 2.68934 10.1893C2.40804 10.4706 2.25 10.8522 2.25 11.25V18C2.25 18.3978 2.40804 18.7794 2.68934 19.0607C2.97064 19.342 3.35218 19.5 3.75 19.5H4.5V20.25C4.5 20.8467 4.73705 21.419 5.15901 21.841C5.58097 22.2629 6.15326 22.5 6.75 22.5H17.25C17.8467 22.5 18.419 22.2629 18.841 21.841C19.2629 21.419 19.5 20.8467 19.5 20.25V19.5H20.25C20.6478 19.5 21.0294 19.342 21.3107 19.0607C21.592 18.7794 21.75 18.3978 21.75 18V11.25C21.75 10.8522 21.592 10.4706 21.3107 10.1893C21.0294 9.90804 20.6478 9.75 20.25 9.75H19.5V7.371C19.4997 6.77457 19.2626 6.20267 18.8407 5.781L15.2197 2.1585C14.7978 1.73679 14.2256 1.49993 13.629 1.5H6.75C6.15326 1.5 5.58097 1.73705 5.15901 2.15901C4.73705 2.58097 4.5 3.15326 4.5 3.75ZM6.75 3H12V6.75C12 7.34674 12.2371 7.91903 12.659 8.34099C13.081 8.76295 13.6533 9 14.25 9H18V9.75H6V3.75C6 3.55109 6.07902 3.36032 6.21967 3.21967C6.36032 3.07902 6.55109 3 6.75 3ZM6 20.25V19.5H18V20.25C18 20.4489 17.921 20.6397 17.7803 20.7803C17.6397 20.921 17.4489 21 17.25 21H6.75C6.55109 21 6.36032 20.921 6.21967 20.7803C6.07902 20.6397 6 20.4489 6 20.25ZM18 7.371V7.5H14.25C14.0511 7.5 13.8603 7.42098 13.7197 7.28033C13.579 7.13968 13.5 6.94891 13.5 6.75V3H13.629C13.8279 3.00004 14.0186 3.07909 14.1593 3.21975L17.7803 6.84075C17.9209 6.98137 18 7.1721 18 7.371ZM3.75 11.25H20.25V18H3.75V11.25Z" fill="#282828"/>
</svg>
