<svg width="35" height="35" viewBox="0 0 35 35" fill="none" xmlns="http://www.w3.org/2000/svg">
<circle cx="17.272" cy="17.8667" r="17.044" fill="white"/>
<path d="M22.2256 13.0219C22.0299 13.0219 21.8385 13.08 21.6758 13.1887C21.513 13.2975 21.3862 13.452 21.3113 13.6329C21.2364 13.8137 21.2168 14.0127 21.255 14.2047C21.2931 14.3966 21.3874 14.573 21.5258 14.7114C21.6642 14.8498 21.8405 14.944 22.0325 14.9822C22.2245 15.0204 22.4235 15.0008 22.6043 14.9259C22.7852 14.851 22.9397 14.7242 23.0485 14.5614C23.1572 14.3987 23.2152 14.2073 23.2152 14.0116C23.2152 13.7491 23.111 13.4974 22.9254 13.3118C22.7398 13.1262 22.4881 13.0219 22.2256 13.0219ZM26.0193 15.0177C26.0032 14.3335 25.8751 13.6565 25.6399 13.0137C25.4302 12.4637 25.1038 11.9657 24.6832 11.554C24.2748 11.1312 23.7757 10.8069 23.2235 10.6056C22.5824 10.3632 21.9047 10.2321 21.2194 10.2179C20.3453 10.1685 20.0649 10.1685 17.8217 10.1685C15.5784 10.1685 15.298 10.1685 14.4239 10.2179C13.7386 10.2321 13.0609 10.3632 12.4198 10.6056C11.8686 10.809 11.3699 11.133 10.9601 11.554C10.5374 11.9623 10.213 12.4615 10.0117 13.0137C9.76933 13.6548 9.63825 14.3325 9.62405 15.0177C9.57457 15.8919 9.57457 16.1723 9.57457 18.4155C9.57457 20.6587 9.57457 20.9391 9.62405 21.8133C9.63825 22.4985 9.76933 23.1763 10.0117 23.8174C10.213 24.3696 10.5374 24.8687 10.9601 25.2771C11.3699 25.6981 11.8686 26.0221 12.4198 26.2255C13.0609 26.4679 13.7386 26.5989 14.4239 26.6131C15.298 26.6626 15.5784 26.6626 17.8217 26.6626C20.0649 26.6626 20.3453 26.6626 21.2194 26.6131C21.9047 26.5989 22.5824 26.4679 23.2235 26.2255C23.7757 26.0241 24.2748 25.6998 24.6832 25.2771C25.1057 24.8669 25.4323 24.3684 25.6399 23.8174C25.8751 23.1746 26.0032 22.4976 26.0193 21.8133C26.0193 20.9391 26.0687 20.6587 26.0687 18.4155C26.0687 16.1723 26.0687 15.8919 26.0193 15.0177ZM24.5348 21.7144C24.5288 22.2379 24.434 22.7566 24.2544 23.2483C24.1227 23.6072 23.9112 23.9315 23.6358 24.1967C23.3683 24.4693 23.0447 24.6804 22.6874 24.8153C22.1957 24.9949 21.677 25.0897 21.1535 25.0957C20.3288 25.1369 20.0236 25.1452 17.8546 25.1452C15.6857 25.1452 15.3805 25.1452 14.5558 25.0957C14.0122 25.1059 13.471 25.0222 12.9559 24.8483C12.6143 24.7065 12.3055 24.4959 12.0487 24.2297C11.775 23.9648 11.5661 23.6402 11.4384 23.2813C11.2371 22.7825 11.1254 22.252 11.1085 21.7144C11.1085 20.8897 11.059 20.5845 11.059 18.4155C11.059 16.2466 11.059 15.9414 11.1085 15.1167C11.1122 14.5815 11.2099 14.0511 11.3972 13.5498C11.5424 13.2017 11.7652 12.8914 12.0487 12.6426C12.2993 12.359 12.6089 12.1338 12.9559 11.9828C13.4586 11.8014 13.9884 11.7066 14.5228 11.7024C15.3475 11.7024 15.6527 11.6529 17.8217 11.6529C19.9906 11.6529 20.2958 11.6529 21.1205 11.7024C21.644 11.7084 22.1627 11.8032 22.6544 11.9828C23.0292 12.1219 23.3656 12.348 23.6358 12.6426C23.9061 12.8959 24.1173 13.2056 24.2544 13.5498C24.4377 14.052 24.5325 14.5821 24.5348 15.1167C24.576 15.9414 24.5843 16.2466 24.5843 18.4155C24.5843 20.5845 24.576 20.8897 24.5348 21.7144ZM17.8217 14.1848C16.9852 14.1864 16.1681 14.4359 15.4734 14.9018C14.7788 15.3677 14.2378 16.029 13.9188 16.8022C13.5999 17.5754 13.5173 18.4258 13.6814 19.246C13.8456 20.0661 14.2492 20.8192 14.8412 21.41C15.4332 22.0009 16.1871 22.403 17.0075 22.5656C17.828 22.7282 18.6782 22.6439 19.4508 22.3234C20.2234 22.003 20.8837 21.4607 21.3482 20.7652C21.8127 20.0696 22.0606 19.252 22.0607 18.4155C22.0617 17.8589 21.9528 17.3076 21.74 16.7933C21.5273 16.279 21.215 15.8118 20.821 15.4186C20.4271 15.0254 19.9593 14.714 19.4445 14.5022C18.9298 14.2905 18.3782 14.1826 17.8217 14.1848ZM17.8217 21.1618C17.2785 21.1618 16.7475 21.0008 16.2959 20.699C15.8443 20.3972 15.4923 19.9683 15.2844 19.4665C15.0766 18.9647 15.0222 18.4125 15.1281 17.8798C15.2341 17.347 15.4957 16.8577 15.8797 16.4736C16.2638 16.0896 16.7532 15.828 17.2859 15.722C17.8186 15.6161 18.3708 15.6704 18.8726 15.8783C19.3744 16.0862 19.8033 16.4382 20.1051 16.8898C20.4069 17.3414 20.5679 17.8724 20.5679 18.4155C20.5679 18.7762 20.4969 19.1333 20.3589 19.4665C20.2209 19.7997 20.0186 20.1024 19.7636 20.3575C19.5085 20.6125 19.2058 20.8148 18.8726 20.9528C18.5394 21.0908 18.1823 21.1618 17.8217 21.1618Z" fill="#0073A5"/>
</svg>
