<svg width="35" height="36" viewBox="0 0 35 36" fill="none" xmlns="http://www.w3.org/2000/svg">
<circle cx="17.956" cy="18.0132" r="17.044" fill="white"/>
<path d="M22.0246 13.1914C21.4609 12.5477 21.1503 11.7213 21.1504 10.8657H18.602V21.0921C18.5828 21.6456 18.3493 22.1701 17.9508 22.5547C17.5523 22.9394 17.0199 23.1542 16.466 23.1539C15.2949 23.1539 14.3218 22.1972 14.3218 21.0096C14.3218 19.5911 15.6908 18.5273 17.1011 18.9644V16.3583C14.2558 15.9789 11.7652 18.1891 11.7652 21.0096C11.7652 23.7559 14.0414 25.7105 16.4578 25.7105C19.0474 25.7105 21.1504 23.6075 21.1504 21.0096V15.8222C22.1837 16.5643 23.4244 16.9625 24.6966 16.9603V14.412C24.6966 14.412 23.1462 14.4862 22.0246 13.1914Z" fill="#0073A5"/>
</svg>
