<svg width="35" height="36" viewBox="0 0 35 36" fill="none" xmlns="http://www.w3.org/2000/svg">
<circle cx="17.5" cy="18.0132" r="17.044" fill="white"/>
<path d="M13.6514 11.6904C13.6514 12.5663 13.0658 13.3201 12.0011 13.3201C10.9991 13.3201 10.3525 12.6092 10.3525 11.7333C10.3525 10.8344 10.9793 10.041 12.0019 10.041C13.0246 10.041 13.6316 10.7915 13.6514 11.6904ZM10.3525 24.8858V14.1646H13.6514V24.8858H10.3525ZM15.3008 17.8296C15.3008 16.5554 15.2587 15.4907 15.2167 14.5711H18.1807L18.3275 15.9921H18.3901C18.8074 15.3233 19.8301 14.3427 21.5422 14.3427C23.6303 14.3427 25.1973 15.7406 25.1973 18.7483V24.8858H21.8984V19.2274C21.8984 17.9129 21.3978 16.91 20.249 16.91C19.3732 16.91 18.9344 17.6193 18.7043 18.204C18.6202 18.4135 18.5996 18.7054 18.5996 18.9982V24.8858H15.3008V17.8296Z" fill="#0073A5"/>
</svg>
