<svg width="22" height="22" viewBox="0 0 22 22" fill="none" xmlns="http://www.w3.org/2000/svg">
<path d="M1.03774 0C0.464611 0 0 0.464611 0 1.03774C0 1.61087 0.464611 2.07548 1.03774 2.07548V0ZM3.41679 1.03774L4.41844 0.766458C4.29593 0.314105 3.88544 0 3.41679 0V1.03774ZM7.28275 15.3121L6.2811 15.5833C6.41629 16.0825 6.89834 16.4059 7.41147 16.3418L7.28275 15.3121ZM19.178 13.8252L19.3067 14.8549C19.7474 14.7998 20.1042 14.4703 20.1942 14.0354L19.178 13.8252ZM20.9623 5.20108L21.9785 5.41133C22.0418 5.10571 21.9641 4.78785 21.767 4.54583C21.5699 4.30381 21.2744 4.16335 20.9623 4.16335V5.20108ZM4.54436 5.20108L3.54271 5.47236L4.54436 5.20108ZM1.03774 1.03774V2.07548H3.41679V1.03774V0H1.03774V1.03774ZM7.28275 15.3121L7.41147 16.3418L19.3067 14.8549L19.178 13.8252L19.0493 12.7954L7.15404 14.2823L7.28275 15.3121ZM19.178 13.8252L20.1942 14.0354L21.9785 5.41133L20.9623 5.20108L19.9461 4.99083L18.1618 13.6149L19.178 13.8252ZM3.41679 1.03774L2.41514 1.30902L3.54271 5.47236L4.54436 5.20108L5.54602 4.9298L4.41844 0.766458L3.41679 1.03774ZM4.54436 5.20108L3.54271 5.47236L6.2811 15.5833L7.28275 15.3121L8.28441 15.0408L5.54602 4.9298L4.54436 5.20108ZM20.9623 5.20108V4.16335H4.54436V5.20108V6.23882H20.9623V5.20108ZM11 19.2057H9.96229C9.96229 19.4923 9.72998 19.7246 9.44342 19.7246V20.7623V21.8001C10.8762 21.8001 12.0378 20.6385 12.0378 19.2057H11ZM9.44342 20.7623V19.7246C9.15685 19.7246 8.92455 19.4923 8.92455 19.2057H7.88681H6.84907C6.84907 20.6385 8.0106 21.8001 9.44342 21.8001V20.7623ZM7.88681 19.2057H8.92455C8.92455 18.9191 9.15685 18.6868 9.44342 18.6868V17.6491V16.6114C8.0106 16.6114 6.84907 17.7729 6.84907 19.2057H7.88681ZM9.44342 17.6491V18.6868C9.72998 18.6868 9.96229 18.9191 9.96229 19.2057H11H12.0378C12.0378 17.7729 10.8762 16.6114 9.44342 16.6114V17.6491ZM19.3019 19.2057H18.2642C18.2642 19.4923 18.0319 19.7246 17.7453 19.7246V20.7623V21.8001C19.1781 21.8001 20.3397 20.6385 20.3397 19.2057H19.3019ZM17.7453 20.7623V19.7246C17.4588 19.7246 17.2265 19.4923 17.2265 19.2057H16.1887H15.151C15.151 20.6385 16.3125 21.8001 17.7453 21.8001V20.7623ZM16.1887 19.2057H17.2265C17.2265 18.9191 17.4588 18.6868 17.7453 18.6868V17.6491V16.6114C16.3125 16.6114 15.151 17.7729 15.151 19.2057H16.1887ZM17.7453 17.6491V18.6868C18.0319 18.6868 18.2642 18.9191 18.2642 19.2057H19.3019H20.3397C20.3397 17.7729 19.1781 16.6114 17.7453 16.6114V17.6491Z" fill="white"/>
</svg>
