<svg width="18" height="22" viewBox="0 0 18 22" fill="none" xmlns="http://www.w3.org/2000/svg">
<path d="M12.0683 1.02271V4.70445C12.0683 5.38224 12.6178 5.9317 13.2956 5.9317H16.9773M5.31846 5.9317H7.77296M5.31846 9.61345H12.682M5.31846 13.2952H12.682M15.1365 2.86358C14.5902 2.37487 14.0235 1.79524 13.6656 1.41878C13.4275 1.16827 13.0986 1.02271 12.753 1.02271H3.4773C2.12172 1.02271 1.02281 2.12162 1.0228 3.47719L1.02271 18.2041C1.0227 19.5597 2.12161 20.6586 3.4772 20.6586L14.5225 20.6587C15.878 20.6587 16.977 19.5598 16.977 18.2042L16.9773 5.19314C16.9773 4.87933 16.8576 4.57767 16.6398 4.35175C16.2371 3.93399 15.5645 3.2466 15.1365 2.86358Z" stroke="white" stroke-width="2" stroke-linecap="round" stroke-linejoin="round"/>
</svg>
