<svg width="20" height="21" viewBox="0 0 20 21" fill="none" xmlns="http://www.w3.org/2000/svg">
<path d="M18.6634 17.5938C18.6634 17.5938 17.5047 18.7318 17.2208 19.0654C16.7582 19.559 16.2132 19.7921 15.4988 19.7921C15.4301 19.7921 15.3568 19.7921 15.2881 19.7875C13.928 19.7007 12.664 19.1705 11.716 18.7181C9.12385 17.4658 6.84774 15.6879 4.95632 13.4348C3.39464 11.5563 2.35047 9.81962 1.65894 7.95492C1.23303 6.81691 1.07732 5.93026 1.14601 5.09389C1.19181 4.55916 1.3979 4.11583 1.77801 3.7365L3.33969 2.17801C3.56409 1.96777 3.80224 1.85352 4.0358 1.85352C4.32432 1.85352 4.55789 2.02719 4.70444 2.17344C4.70902 2.17801 4.7136 2.18258 4.71818 2.18715C4.99754 2.44766 5.26316 2.71731 5.54252 3.00524C5.68449 3.15149 5.83104 3.29774 5.97759 3.44856L7.22785 4.69627C7.7133 5.18072 7.7133 5.62862 7.22785 6.11307C7.09504 6.24561 6.96681 6.37815 6.834 6.50612C6.4493 6.89917 6.7515 6.59759 6.35307 6.95407C6.34391 6.96322 6.33475 6.96779 6.33017 6.97693C5.93632 7.36998 6.00959 7.75388 6.09203 8.01439C6.09661 8.0281 6.10119 8.04181 6.10577 8.05553C6.43092 8.84162 6.88889 9.58202 7.58501 10.4641L7.58959 10.4687C8.85358 12.0226 10.1863 13.2337 11.6564 14.1615C11.8441 14.2803 12.0365 14.3763 12.2197 14.4677C12.3845 14.55 12.5402 14.6277 12.6731 14.7099C12.6914 14.7191 12.7097 14.7328 12.728 14.7419C12.8837 14.8196 13.0303 14.8562 13.1814 14.8562C13.5615 14.8562 13.7997 14.6185 13.8775 14.5408L14.7752 13.645C14.9309 13.4896 15.1782 13.3022 15.4667 13.3022C15.7507 13.3022 15.9842 13.4805 16.1262 13.6359C16.1308 13.6404 16.1308 13.6404 16.1354 13.645L18.6588 16.1633C19.1305 16.6294 18.6634 17.5938 18.6634 17.5938Z" stroke="white" stroke-width="2" stroke-linecap="round" stroke-linejoin="round"/>
</svg>
