<svg width="152" height="47" viewBox="0 0 152 47" fill="none" xmlns="http://www.w3.org/2000/svg">
<g clip-path="url(#clip0_271_937)">
<path fill-rule="evenodd" clip-rule="evenodd" d="M116.819 0.182918C119.214 0.182918 121.564 0.182918 123.914 0.182918C124.479 0.182918 125.044 0.228639 125.609 0.160057C126.038 0.114336 126.196 0.297221 126.332 0.685851C127.529 3.93205 128.727 7.15539 129.947 10.4016C130.128 10.3102 130.128 10.1273 130.195 9.99011C131.416 6.78962 132.636 3.58914 133.833 0.388663C133.946 0.0686152 134.104 -0.0228271 134.421 -0.0228271C137.403 3.34289e-05 140.386 -0.0228271 143.436 -0.0228271C141.516 4.82362 139.618 9.62434 137.697 14.4479C137.878 14.4936 137.991 14.3793 138.126 14.3336C142.578 12.3676 147.006 10.4016 151.458 8.41273C151.932 8.20698 151.955 8.20698 151.955 8.73277C151.977 11.3846 151.977 14.0364 152 16.6883C152 17.0083 151.887 17.1455 151.616 17.2598C148.294 18.7 144.973 20.1402 141.629 21.5804C141.696 21.7633 141.877 21.7862 142.013 21.8547C145.199 23.3864 148.362 24.9409 151.548 26.4726C151.752 26.564 151.932 26.6326 151.932 26.9527C151.91 29.7874 151.932 32.6221 151.932 35.5254C147.165 33.5822 142.442 31.6391 137.629 29.6731C138.036 30.8847 138.398 31.982 138.759 33.0793C140.115 37.1485 141.471 41.2177 142.849 45.264C142.962 45.6297 142.962 45.7212 142.533 45.7212C139.798 45.6983 137.042 45.6983 134.308 45.7212C133.969 45.7212 133.856 45.584 133.743 45.2868C132.749 42.1778 131.709 39.0688 130.692 35.9597C130.647 35.8226 130.647 35.6397 130.467 35.5482C129.902 37.4914 129.337 39.4345 128.772 41.3548C128.365 42.7265 127.958 44.0981 127.574 45.4926C127.484 45.7898 127.371 45.8812 127.077 45.8584C123.891 45.8584 120.705 45.8355 117.519 45.8584C117.067 45.8584 117.067 45.744 117.203 45.3783C120.005 38.04 122.807 30.7018 125.609 23.3407C125.744 23.0206 125.721 22.7463 125.609 22.4263C122.716 15.1566 119.824 7.88693 116.954 0.594408C116.932 0.525827 116.887 0.388663 116.819 0.182918Z" fill="white"/>
<path fill-rule="evenodd" clip-rule="evenodd" d="M111.17 45.9498C110.108 45.9498 109.023 45.9498 107.961 45.9498C107.69 45.9498 107.6 45.8812 107.6 45.5841C107.622 41.172 107.622 36.7599 107.645 32.3478C107.645 29.7645 107.668 27.1813 107.668 24.5752C107.69 16.7569 107.69 8.93855 107.69 1.12024C107.69 0.388698 107.6 0.503001 108.323 0.503001C110.334 0.503001 112.345 0.503001 114.333 0.503001C114.627 0.503001 114.763 0.571582 114.853 0.86877C117.497 8.16129 120.14 15.4767 122.807 22.7692C122.897 23.0207 122.829 23.2036 122.761 23.4322C120.683 29.2616 118.604 35.0911 116.548 40.9205C115.983 42.4979 115.418 44.0981 114.853 45.6755C114.763 45.9727 114.627 46.0413 114.333 46.0413C113.271 46.0184 112.232 46.0413 111.17 46.0413C111.17 45.9955 111.17 45.9727 111.17 45.9498Z" fill="white"/>
<path fill-rule="evenodd" clip-rule="evenodd" d="M10.9137 30.4046C10.9815 30.2675 11.0493 30.1532 11.1171 30.016C13.3314 25.5582 15.5232 21.0775 17.715 16.5968C17.8957 16.2539 18.0765 16.1396 18.438 16.1625C19.726 16.1853 21.0139 16.1853 22.3019 16.1625C22.7086 16.1625 22.8667 16.2996 23.0249 16.6654C24.8552 21.2147 26.708 25.7411 28.5608 30.2675C28.719 30.6332 28.6738 30.7475 28.2671 30.7247C27.0469 30.7018 25.8494 30.7018 24.6292 30.7247C24.358 30.7247 24.2225 30.6332 24.1321 30.3818C23.8384 29.5359 23.522 28.6901 23.2283 27.8442C23.1379 27.5928 23.0249 27.4785 22.7312 27.5013C20.8106 27.5242 18.8673 27.5013 16.9467 27.5013C16.6982 27.5013 16.5626 27.5928 16.4722 27.8214C16.1107 28.6901 15.7266 29.5359 15.365 30.4046C15.2747 30.6332 15.1391 30.7247 14.8905 30.7247C10.0551 30.7247 5.21965 30.7247 0.384215 30.7247C0.0904736 30.7247 9.15527e-05 30.6332 9.15527e-05 30.336C0.15826 26.5183 0.293833 22.7006 0.452002 18.8829C0.474597 18.1513 0.497193 17.4198 0.519788 16.7111C0.519788 16.3454 0.61017 16.1853 1.03948 16.1853C2.05628 16.2311 3.09568 16.2082 4.11247 16.1853C4.51919 16.1853 4.65477 16.2539 4.63217 16.7111C4.474 20.3231 4.36102 23.9579 4.20286 27.5699C4.18026 28.0271 4.31583 28.0957 4.72255 28.0957C6.62058 28.0728 8.5186 28.0957 10.4166 28.0728C10.8685 28.0728 10.9589 28.21 10.9137 28.6215C10.8685 29.2159 10.8459 29.8102 10.8233 30.4046C10.8685 30.4046 10.8911 30.4046 10.9137 30.4046ZM20.1553 18.7C19.9971 19.5001 19.726 20.1402 19.4322 20.7575C18.8673 22.0148 18.325 23.295 17.7602 24.5752C17.6246 24.8724 17.6698 24.9638 18.0087 24.9638C19.1837 24.9409 20.3586 24.9638 21.5336 24.9638C22.3019 24.9638 22.2567 25.0324 22.0081 24.278C21.398 22.472 20.5846 20.7346 20.1553 18.7Z" fill="white"/>
<path fill-rule="evenodd" clip-rule="evenodd" d="M77.5028 19.6144C76.373 19.1343 75.2432 18.8371 74.0683 18.7457C72.6447 18.6314 71.2212 18.5857 69.8429 19.0657C67.2218 19.9802 65.9113 22.4262 66.6117 25.1009C66.9959 26.5412 67.9675 27.4327 69.3232 27.8671C70.7015 28.3243 72.125 28.2786 73.5486 28.0042C73.8875 27.9356 73.9779 27.7756 73.9779 27.4327C73.9779 26.7698 74.0005 26.1068 74.0683 25.4438C74.0909 25.0781 73.9779 25.0095 73.6389 25.0095C72.6899 25.0324 71.7409 25.0095 70.7919 25.0095C70.566 25.0095 70.4078 25.0095 70.4304 24.7123C70.4756 24.0493 70.4982 23.3864 70.4982 22.7234C70.4982 22.4948 70.5885 22.4034 70.8145 22.4034C73.2096 22.4034 75.5822 22.4034 77.9773 22.4034C78.2484 22.4034 78.271 22.5177 78.271 22.7463C78.1806 24.9638 78.0903 27.2041 78.0225 29.4216C78.0225 29.6959 77.8869 29.7874 77.661 29.8788C76.4634 30.3817 75.2206 30.6561 73.9327 30.8161C71.7635 31.0675 69.5943 31.0904 67.4704 30.496C65.9113 30.0617 64.5103 29.3301 63.4484 28.0271C61.46 25.5581 61.7085 21.5118 63.9907 19.0886C65.5949 17.3741 67.6059 16.4825 69.8655 16.1167C72.3058 15.7281 74.7461 15.8653 77.1638 16.4139C77.5254 16.5054 77.6609 16.6197 77.6384 17.0311C77.5706 17.877 77.548 18.7228 77.5028 19.6144Z" fill="white"/>
<path fill-rule="evenodd" clip-rule="evenodd" d="M79.2877 30.7018C79.3781 30.5189 79.4232 30.3818 79.491 30.2675C81.7506 25.6953 84.0101 21.1461 86.2471 16.574C86.4053 16.2539 86.5634 16.1625 86.9024 16.1625C88.2355 16.1853 89.5686 16.1853 90.9018 16.1625C91.1955 16.1625 91.3537 16.2311 91.4893 16.5282C93.3421 21.1232 95.2175 25.7182 97.093 30.2903C97.2511 30.6789 97.1607 30.7247 96.7992 30.7018C95.579 30.6789 94.3815 30.6789 93.1613 30.7018C92.8676 30.7018 92.732 30.6104 92.619 30.336C92.3479 29.5131 92.009 28.6901 91.7378 27.8442C91.6474 27.5699 91.5119 27.4556 91.2181 27.4556C89.2975 27.4785 87.3995 27.4785 85.4788 27.4556C85.2077 27.4556 85.0721 27.547 84.9592 27.7985C84.5976 28.6672 84.2135 29.5359 83.852 30.3818C83.7842 30.5646 83.6938 30.6789 83.4452 30.6789C82.0895 30.7018 80.7338 30.7018 79.2877 30.7018ZM88.6648 18.8143C88.5292 19.4087 88.3033 19.9573 88.0547 20.4831C87.4673 21.8319 86.8798 23.1578 86.2697 24.5066C86.1115 24.8724 86.1793 24.9409 86.5634 24.9409C87.8062 24.9181 89.0489 24.9181 90.2691 24.9409C90.6984 24.9409 90.721 24.8038 90.5854 24.4609C90.4047 24.0037 90.2239 23.5464 90.0657 23.0664C89.6138 21.6719 88.936 20.3231 88.6648 18.8143Z" fill="white"/>
<path fill-rule="evenodd" clip-rule="evenodd" d="M44.7165 27.6613C45.4622 25.421 46.4564 23.295 47.3376 21.1003C47.9477 19.5915 48.5803 18.0827 49.1904 16.5511C49.3034 16.2768 49.4164 16.1396 49.7553 16.1396C50.9077 16.1624 52.0827 16.1624 53.235 16.1396C53.574 16.1396 53.6191 16.2082 53.4836 16.5282C51.3144 21.1461 49.1452 25.7639 46.9761 30.4046C46.8857 30.6103 46.7727 30.7018 46.5242 30.7018C45.1684 30.7018 43.8353 30.7018 42.4796 30.7018C42.231 30.7018 42.1406 30.6103 42.0503 30.3817C40.2652 25.7639 38.4802 21.1461 36.6725 16.5282C36.5369 16.1853 36.6499 16.1396 36.9437 16.1396C38.1638 16.1624 39.384 16.1624 40.6267 16.1396C40.8979 16.1396 40.9883 16.231 41.0786 16.4596C42.1858 19.7516 43.293 23.0435 44.4002 26.3354C44.5132 26.7926 44.6035 27.227 44.7165 27.6613Z" fill="white"/>
<path fill-rule="evenodd" clip-rule="evenodd" d="M59.1325 23.4092C59.0421 25.6724 58.9517 27.9585 58.9065 30.2217C58.9065 30.6103 58.7935 30.7246 58.4094 30.7246C57.3248 30.7018 56.2402 30.7018 55.1557 30.7246C54.8619 30.7246 54.7489 30.6561 54.7715 30.336C54.8845 27.5013 54.9975 24.6437 55.1105 21.809C55.1783 20.0716 55.246 18.3571 55.3138 16.6197C55.3138 16.2996 55.3816 16.1624 55.7431 16.1853C56.8503 16.2082 57.9801 16.2082 59.0873 16.1853C59.3358 16.1853 59.4262 16.231 59.4036 16.5282C59.3132 18.7914 59.2229 21.1003 59.1325 23.4092Z" fill="white"/>
<path opacity="0.2" fill-rule="evenodd" clip-rule="evenodd" d="M20.1553 18.7C20.5846 20.7346 21.398 22.472 22.0081 24.278C22.2567 25.0324 22.3019 24.9638 21.5336 24.9638C20.3587 24.9638 19.1837 24.9638 18.0087 24.9638C17.6698 24.9638 17.6246 24.8724 17.7602 24.5752C18.3251 23.3179 18.8673 22.0377 19.4322 20.7575C19.726 20.1402 19.9971 19.5001 20.1553 18.7Z" fill="white"/>
<path opacity="0.2" fill-rule="evenodd" clip-rule="evenodd" d="M88.6648 18.8143C88.936 20.3231 89.6139 21.6719 90.0884 23.0893C90.2465 23.5693 90.4047 24.0265 90.6081 24.4838C90.7436 24.8267 90.721 24.9638 90.2917 24.9638C89.049 24.941 87.8062 24.941 86.5861 24.9638C86.2019 24.9638 86.1342 24.8724 86.2923 24.5295C86.9024 23.2036 87.4673 21.8548 88.0774 20.506C88.3033 19.9574 88.5293 19.4087 88.6648 18.8143Z" fill="white"/>
</g>
<defs>
<clipPath id="clip0_271_937">
<rect width="152" height="46.0183" fill="white"/>
</clipPath>
</defs>
</svg>
