<svg width="16" height="46" viewBox="0 0 16 46" fill="none" xmlns="http://www.w3.org/2000/svg">
<path fill-rule="evenodd" clip-rule="evenodd" d="M3.60577 45.9077C2.53317 45.9077 1.43774 45.9077 0.365136 45.9077C0.0912798 45.9077 0 45.8384 0 45.5382C0.0228213 41.082 0.0228172 36.6258 0.0456385 32.1696C0.0456385 29.5606 0.0684612 26.9515 0.0684612 24.3194C0.0912826 16.4229 0.091284 8.52642 0.091284 0.62995C0.091284 -0.108901 -4.18959e-06 0.00654453 0.730279 0.00654453C2.76138 0.00654453 4.79248 0.00654453 6.80076 0.00654453C7.09743 0.00654453 7.23436 0.0758118 7.32565 0.37597C9.99574 7.74139 12.6658 15.1299 15.3588 22.4953C15.45 22.7493 15.3816 22.934 15.3131 23.1649C13.2136 29.0526 11.114 34.9403 9.03725 40.8281C8.46671 42.4212 7.89618 44.0374 7.32565 45.6306C7.23436 45.9307 7.09743 46 6.80076 46C5.72815 45.9769 4.67837 46 3.60577 46C3.60577 45.9538 3.60577 45.9307 3.60577 45.9077Z" fill="white"/>
</svg>
