<svg width="152" height="47" viewBox="0 0 152 47" fill="none" xmlns="http://www.w3.org/2000/svg">
<path fill-rule="evenodd" clip-rule="evenodd" d="M116.819 0.183284C119.214 0.183284 121.564 0.183284 123.914 0.183284C124.479 0.183284 125.044 0.229005 125.609 0.160424C126.038 0.114703 126.196 0.297587 126.332 0.686217C127.529 3.93242 128.727 7.15576 129.947 10.402C130.128 10.3105 130.128 10.1276 130.195 9.99047C131.416 6.78999 132.636 3.58951 133.833 0.389029C133.946 0.0689814 134.104 -0.0224609 134.421 -0.0224609C137.403 0.00039964 140.386 -0.0224609 143.436 -0.0224609C141.516 4.82398 139.618 9.6247 137.697 14.4483C137.878 14.494 137.991 14.3797 138.126 14.334C142.578 12.368 147.006 10.402 151.458 8.41309C151.932 8.20735 151.955 8.20735 151.955 8.73314C151.977 11.385 151.977 14.0368 152 16.6886C152 17.0087 151.887 17.1458 151.616 17.2601C148.294 18.7004 144.973 20.1406 141.629 21.5808C141.696 21.7637 141.877 21.7865 142.013 21.8551C145.199 23.3868 148.362 24.9413 151.548 26.4729C151.752 26.5644 151.932 26.633 151.932 26.953C151.91 29.7877 151.932 32.6224 151.932 35.5257C147.165 33.5826 142.442 31.6394 137.629 29.6734C138.036 30.885 138.398 31.9823 138.759 33.0797C140.115 37.1488 141.471 41.218 142.849 45.2643C142.962 45.6301 142.962 45.7216 142.533 45.7216C139.798 45.6987 137.042 45.6987 134.308 45.7216C133.969 45.7216 133.856 45.5844 133.743 45.2872C132.749 42.1782 131.709 39.0691 130.692 35.9601C130.647 35.8229 130.647 35.64 130.467 35.5486C129.902 37.4917 129.337 39.4349 128.772 41.3552C128.365 42.7268 127.958 44.0985 127.574 45.493C127.484 45.7901 127.371 45.8816 127.077 45.8587C123.891 45.8587 120.705 45.8359 117.519 45.8587C117.067 45.8587 117.067 45.7444 117.203 45.3786C120.005 38.0404 122.807 30.7022 125.609 23.341C125.744 23.021 125.721 22.7467 125.609 22.4266C122.716 15.157 119.824 7.8873 116.954 0.594775C116.932 0.526193 116.887 0.389029 116.819 0.183284Z" fill="#686868"/>
<path fill-rule="evenodd" clip-rule="evenodd" d="M111.17 45.9504C110.108 45.9504 109.023 45.9504 107.961 45.9504C107.69 45.9504 107.6 45.8818 107.6 45.5846C107.622 41.1725 107.622 36.7604 107.645 32.3483C107.645 29.7651 107.668 27.1818 107.668 24.5757C107.69 16.7574 107.69 8.9391 107.69 1.12079C107.69 0.389247 107.6 0.50355 108.323 0.50355C110.334 0.50355 112.345 0.50355 114.333 0.50355C114.627 0.50355 114.763 0.572132 114.853 0.869319C117.497 8.16184 120.14 15.4772 122.807 22.7698C122.897 23.0212 122.829 23.2041 122.761 23.4327C120.683 29.2622 118.604 35.0916 116.548 40.9211C115.983 42.4984 115.418 44.0987 114.853 45.6761C114.763 45.9732 114.627 46.0418 114.333 46.0418C113.271 46.019 112.232 46.0418 111.17 46.0418C111.17 45.9961 111.17 45.9732 111.17 45.9504Z" fill="#00B2FF"/>
<path fill-rule="evenodd" clip-rule="evenodd" d="M10.9136 30.4051C10.9814 30.2679 11.0492 30.1536 11.117 30.0165C13.3314 25.5587 15.5231 21.078 17.7149 16.5973C17.8956 16.2544 18.0764 16.1401 18.4379 16.163C19.7259 16.1858 21.0138 16.1858 22.3018 16.163C22.7085 16.163 22.8667 16.3001 23.0248 16.6659C24.8551 21.2152 26.7079 25.7415 28.5607 30.2679C28.7189 30.6337 28.6737 30.748 28.267 30.7252C27.0468 30.7023 25.8493 30.7023 24.6291 30.7252C24.358 30.7252 24.2224 30.6337 24.132 30.3822C23.8383 29.5364 23.5219 28.6906 23.2282 27.8447C23.1378 27.5933 23.0248 27.479 22.7311 27.5018C20.8105 27.5247 18.8673 27.5018 16.9466 27.5018C16.6981 27.5018 16.5625 27.5933 16.4721 27.8219C16.1106 28.6906 15.7265 29.5364 15.3649 30.4051C15.2746 30.6337 15.139 30.7252 14.8904 30.7252C10.055 30.7252 5.21956 30.7252 0.384124 30.7252C0.0903821 30.7252 0 30.6337 0 30.3365C0.158169 26.5188 0.293742 22.7011 0.45191 18.8834C0.474506 18.1518 0.497101 17.4203 0.519697 16.7116C0.519697 16.3458 0.610079 16.1858 1.03939 16.1858C2.05619 16.2315 3.09558 16.2087 4.11238 16.1858C4.5191 16.1858 4.65467 16.2544 4.63208 16.7116C4.47391 20.3236 4.36093 23.9584 4.20276 27.5704C4.18017 28.0276 4.31574 28.0962 4.72246 28.0962C6.62048 28.0733 8.51851 28.0962 10.4165 28.0733C10.8684 28.0733 10.9588 28.2105 10.9136 28.622C10.8684 29.2164 10.8458 29.8107 10.8232 30.4051C10.8684 30.4051 10.891 30.4051 10.9136 30.4051ZM20.1552 18.7005C19.997 19.5006 19.7259 20.1407 19.4321 20.7579C18.8673 22.0153 18.325 23.2955 17.7601 24.5757C17.6245 24.8728 17.6697 24.9643 18.0086 24.9643C19.1836 24.9414 20.3586 24.9643 21.5335 24.9643C22.3018 24.9643 22.2566 25.0329 22.008 24.2785C21.3979 22.4725 20.5845 20.7351 20.1552 18.7005Z" fill="#00B2FF"/>
<path fill-rule="evenodd" clip-rule="evenodd" d="M77.5027 19.6148C76.3729 19.1347 75.2431 18.8375 74.0682 18.7461C72.6446 18.6318 71.2211 18.586 69.8428 19.0661C67.2217 19.9805 65.9112 22.4266 66.6116 25.1013C66.9958 26.5415 67.9674 27.4331 69.3231 27.8674C70.7014 28.3246 72.125 28.2789 73.5485 28.0046C73.8874 27.936 73.9778 27.776 73.9778 27.4331C73.9778 26.7701 74.0004 26.1072 74.0682 25.4442C74.0908 25.0784 73.9778 25.0099 73.6389 25.0099C72.6898 25.0327 71.7408 25.0099 70.7918 25.0099C70.5659 25.0099 70.4077 25.0099 70.4303 24.7127C70.4755 24.0497 70.4981 23.3868 70.4981 22.7238C70.4981 22.4952 70.5885 22.4038 70.8144 22.4038C73.2095 22.4038 75.5821 22.4038 77.9772 22.4038C78.2483 22.4038 78.2709 22.5181 78.2709 22.7467C78.1806 24.9641 78.0902 27.2045 78.0224 29.422C78.0224 29.6963 77.8868 29.7877 77.6609 29.8792C76.4633 30.3821 75.2205 30.6564 73.9326 30.8164C71.7634 31.0679 69.5943 31.0908 67.4703 30.4964C65.9112 30.062 64.5103 29.3305 63.4483 28.0275C61.4599 25.5585 61.7084 21.5122 63.9906 19.089C65.5948 17.3744 67.6059 16.4829 69.8654 16.1171C72.3057 15.7285 74.746 15.8656 77.1638 16.4143C77.5253 16.5057 77.6609 16.62 77.6383 17.0315C77.5705 17.8774 77.5479 18.7232 77.5027 19.6148Z" fill="#00B2FF"/>
<path fill-rule="evenodd" clip-rule="evenodd" d="M79.2876 30.7024C79.378 30.5195 79.4232 30.3824 79.491 30.2681C81.7505 25.6959 84.0101 21.1467 86.247 16.5746C86.4052 16.2545 86.5634 16.1631 86.9023 16.1631C88.2354 16.1859 89.5686 16.1859 90.9017 16.1631C91.1954 16.1631 91.3536 16.2317 91.4892 16.5289C93.342 21.1238 95.2174 25.7188 97.0929 30.2909C97.251 30.6796 97.1607 30.7253 96.7991 30.7024C95.579 30.6796 94.3814 30.6796 93.1612 30.7024C92.8675 30.7024 92.7319 30.611 92.619 30.3366C92.3478 29.5137 92.0089 28.6907 91.7377 27.8448C91.6474 27.5705 91.5118 27.4562 91.218 27.4562C89.2974 27.4791 87.3994 27.4791 85.4788 27.4562C85.2076 27.4562 85.0721 27.5477 84.9591 27.7991C84.5975 28.6678 84.2134 29.5365 83.8519 30.3824C83.7841 30.5653 83.6937 30.6796 83.4452 30.6796C82.0894 30.7024 80.7337 30.7024 79.2876 30.7024ZM88.6647 18.8149C88.5292 19.4093 88.3032 19.9579 88.0547 20.4837C87.4672 21.8325 86.8797 23.1584 86.2696 24.5072C86.1114 24.873 86.1792 24.9415 86.5634 24.9415C87.8061 24.9187 89.0489 24.9187 90.269 24.9415C90.6983 24.9415 90.7209 24.8044 90.5854 24.4615C90.4046 24.0043 90.2238 23.5471 90.0657 23.067C89.6138 21.6725 88.9359 20.3237 88.6647 18.8149Z" fill="#00B2FF"/>
<path fill-rule="evenodd" clip-rule="evenodd" d="M44.7165 27.6614C45.4622 25.421 46.4564 23.295 47.3376 21.1004C47.9477 19.5916 48.5803 18.0828 49.1904 16.5511C49.3034 16.2768 49.4164 16.1396 49.7553 16.1396C50.9077 16.1625 52.0827 16.1625 53.235 16.1396C53.574 16.1396 53.6191 16.2082 53.4836 16.5283C51.3144 21.1461 49.1452 25.764 46.9761 30.4047C46.8857 30.6104 46.7727 30.7018 46.5242 30.7018C45.1684 30.7018 43.8353 30.7018 42.4796 30.7018C42.231 30.7018 42.1406 30.6104 42.0503 30.3818C40.2652 25.764 38.4802 21.1461 36.6725 16.5283C36.5369 16.1854 36.6499 16.1396 36.9437 16.1396C38.1638 16.1625 39.384 16.1625 40.6267 16.1396C40.8979 16.1396 40.9883 16.2311 41.0786 16.4597C42.1858 19.7516 43.293 23.0435 44.4002 26.3355C44.5132 26.7927 44.6035 27.227 44.7165 27.6614Z" fill="#00B2FF"/>
<path fill-rule="evenodd" clip-rule="evenodd" d="M59.1324 23.41C59.042 25.6732 58.9516 27.9592 58.9065 30.2224C58.9065 30.6111 58.7935 30.7254 58.4094 30.7254C57.3248 30.7025 56.2402 30.7025 55.1556 30.7254C54.8619 30.7254 54.7489 30.6568 54.7715 30.3367C54.8845 27.502 54.9974 24.6445 55.1104 21.8097C55.1782 20.0723 55.246 18.3578 55.3138 16.6204C55.3138 16.3003 55.3816 16.1632 55.7431 16.186C56.8503 16.2089 57.98 16.2089 59.0872 16.186C59.3358 16.186 59.4261 16.2318 59.4036 16.5289C59.3132 18.7921 59.2228 21.1011 59.1324 23.41Z" fill="#00B2FF"/>
<path opacity="0.2" fill-rule="evenodd" clip-rule="evenodd" d="M20.1552 18.7002C20.5846 20.7348 21.398 22.4722 22.0081 24.2782C22.2566 25.0326 22.3018 24.964 21.5336 24.964C20.3586 24.964 19.1836 24.964 18.0087 24.964C17.6697 24.964 17.6245 24.8726 17.7601 24.5754C18.325 23.318 18.8673 22.0378 19.4322 20.7576C19.7259 20.1404 19.9971 19.5003 20.1552 18.7002Z" fill="white"/>
<path opacity="0.2" fill-rule="evenodd" clip-rule="evenodd" d="M88.6648 18.8145C88.936 20.3233 89.6138 21.672 90.0883 23.0894C90.2465 23.5695 90.4047 24.0267 90.608 24.4839C90.7436 24.8268 90.721 24.9639 90.2917 24.9639C89.0489 24.9411 87.8062 24.9411 86.586 24.9639C86.2019 24.9639 86.1341 24.8725 86.2923 24.5296C86.9024 23.2037 87.4673 21.8549 88.0773 20.5061C88.3033 19.9575 88.5292 19.4088 88.6648 18.8145Z" fill="white"/>
</svg>
