<svg width="36" height="46" viewBox="0 0 36 46" fill="none" xmlns="http://www.w3.org/2000/svg">
<path fill-rule="evenodd" clip-rule="evenodd" d="M0 0.206263C2.40115 0.206263 4.757 0.206263 7.11285 0.206263C7.67916 0.206263 8.24547 0.252099 8.81178 0.183345C9.24217 0.137509 9.40073 0.320854 9.53664 0.710461C10.7372 3.96483 11.9378 7.19629 13.161 10.4507C13.3422 10.359 13.3423 10.1756 13.4102 10.0381C14.6334 6.8296 15.8567 3.62106 17.0572 0.412526C17.1705 0.0916725 17.3291 0 17.6462 0C20.6363 0.0229181 23.6264 0 26.6845 0C24.759 4.85864 22.8563 9.67144 20.9308 14.5072C21.112 14.553 21.2253 14.4384 21.3612 14.3926C25.8237 12.4216 30.2636 10.4507 34.7261 8.45678C35.2018 8.25052 35.2244 8.25052 35.2244 8.77764C35.2471 11.4361 35.2471 14.0946 35.2698 16.7531C35.2698 17.074 35.1565 17.2115 34.8847 17.3261C31.5548 18.7699 28.2249 20.2138 24.8723 21.6576C24.9403 21.841 25.1215 21.8639 25.2574 21.9326C28.4514 23.4681 31.6227 25.0266 34.8167 26.5621C35.0206 26.6538 35.2018 26.7225 35.2018 27.0434C35.1791 29.8852 35.2018 32.7271 35.2018 35.6377C30.4221 33.6896 25.6878 31.7416 20.8628 29.7706C21.2706 30.9853 21.633 32.0854 21.9955 33.1854C23.3546 37.2648 24.7137 41.3443 26.0955 45.4008C26.2088 45.7675 26.2088 45.8591 25.7784 45.8591C23.0375 45.8362 20.2739 45.8362 17.5329 45.8591C17.1932 45.8591 17.0799 45.7216 16.9666 45.4237C15.9699 42.3068 14.9279 39.19 13.9086 36.0731C13.8633 35.9356 13.8633 35.7523 13.682 35.6606C13.1157 37.6086 12.5494 39.5567 11.9831 41.4818C11.5754 42.8569 11.1676 44.232 10.7825 45.63C10.6919 45.9279 10.5787 46.0196 10.2842 45.9967C7.0902 45.9967 3.8962 45.9737 0.702218 45.9967C0.249171 45.9967 0.249179 45.8821 0.385093 45.5154C3.19399 38.1587 6.00289 30.8019 8.81178 23.4223C8.94769 23.1015 8.92504 22.8264 8.81178 22.5056C5.91228 15.2176 3.01276 7.92967 0.135909 0.618789C0.113256 0.550035 0.0679571 0.412526 0 0.206263Z" fill="white"/>
</svg>
